<?xml version="1.0" encoding="utf-8"?>
<!-- Generator: Adobe Illustrator 23.0.3, SVG Export Plug-In . SVG Version: 6.00 Build 0)  -->
<svg version="1.1" id="Layer_1" xmlns="http://www.w3.org/2000/svg" xmlns:xlink="http://www.w3.org/1999/xlink" x="0px" y="0px"
	 viewBox="0 0 268 154" style="enable-background:new 0 0 268 154;" xml:space="preserve">
<style type="text/css">
	.st0{fill:#D8925E;}
	.st1{fill:#FDA511;}
	.st2{fill:#ECA65C;}
	.st3{fill:#747D8F;}
	.st4{fill:#FBA417;}
	.st5{fill:#D8925C;}
	.st6{fill:#233862;}
	.st7{fill:#9FD4EC;}
	.st8{fill:#D0956A;}
	.st9{fill:#7396E8;}
	.st10{fill:#D8905B;}
	.st11{fill:#777A84;}
	.st12{fill:#D7925E;}
	.st13{fill:#C0D3EE;}
	.st14{fill:#DA9358;}
	.st15{fill:#F6A522;}
	.st16{fill:#789AE6;}
	.st17{fill:#333A52;}
	.st18{fill:#CB7F49;}
	.st19{fill:#A5D5EA;}
	.st20{fill:#787B85;}
	.st21{fill:#F1AF3F;}
	.st22{fill:#709FBD;}
	.st23{fill:#EEAA33;}
	.st24{fill:#B4523D;}
	.st25{fill:#FBF7EF;}
	.st26{fill:#D78B48;}
	.st27{fill:#7F99D5;}
	.st28{fill:#7FADBC;}
	.st29{fill:#797A86;}
	.st30{fill:#777A82;}
	.st31{fill:#AC6047;}
	.st32{fill:#AE6747;}
	.st33{fill:#2C4F8A;}
	.st34{fill:#B78771;}
	.st35{fill:#2A4589;}
	.st36{fill:#E59B44;}
	.st37{fill:#E07F2B;}
	.st38{fill:#364161;}
	.st39{fill:#DA9E59;}
	.st40{fill:#3D456E;}
	.st41{fill:#9FD7EF;}
	.st42{fill:#BDB78C;}
	.st43{fill:#D3B870;}
	.st44{fill:#223762;}
	.st45{fill:#D69361;}
	.st46{fill:#243863;}
	.st47{fill:#4E75C9;}
	.st48{fill:#FBA419;}
	.st49{fill:#EFB044;}
	.st50{fill:#D8925D;}
	.st51{fill:#D9925E;}
	.st52{fill:#4A495B;}
	.st53{fill:#383549;}
	.st54{fill:#253966;}
	.st55{fill:#818FB6;}
	.st56{fill:#D88531;}
	.st57{fill:#4D5C85;}
	.st58{fill:#636176;}
	.st59{fill:#233963;}
	.st60{fill:#233864;}
	.st61{fill:#243A65;}
	.st62{fill:#243B67;}
	.st63{fill:#283758;}
	.st64{fill:#293858;}
	.st65{fill:#28365A;}
	.st66{fill:#273658;}
	.st67{fill:#283759;}
	.st68{fill:#26375A;}
	.st69{fill:#D59464;}
	.st70{fill:#2D427D;}
	.st71{fill:#FAA416;}
	.st72{fill:#E78716;}
	.st73{fill:#C27A3A;}
	.st74{fill:#5D3F20;}
	.st75{fill:#4F75C5;}
	.st76{fill:#6E7897;}
	.st77{fill:#FBA416;}
	.st78{fill:#DE812A;}
	.st79{fill:#D39952;}
	.st80{fill:#E9AB3E;}
	.st81{fill:#CEA152;}
	.st82{fill:#D59E3D;}
	.st83{fill:#5B72B0;}
	.st84{fill:#FAA318;}
	.st85{fill:#E1860F;}
	.st86{fill:#B7826A;}
	.st87{fill:#273960;}
	.st88{fill:#976E44;}
	.st89{fill:#2E3953;}
	.st90{fill:#8B6143;}
	.st91{fill:#E6880F;}
	.st92{fill:#7399F0;}
	.st93{fill:#9ED1EE;}
	.st94{fill:#254884;}
	.st95{fill:#D9925C;}
	.st96{fill:#E17E2B;}
	.st97{fill:#B64C43;}
	.st98{fill:#CA916A;}
	.st99{fill:#F8A421;}
	.st100{fill:#C89C7E;}
	.st101{fill:#CE9390;}
	.st102{fill:#7399EF;}
	.st103{fill:#D5925F;}
	.st104{fill:#A0D6EE;}
	.st105{fill:#D59361;}
	.st106{fill:#D29366;}
	.st107{fill:#8295D0;}
	.st108{fill:#C6A07D;}
	.st109{fill:#6C5950;}
	.st110{fill:#484048;}
	.st111{fill:#D9925D;}
	.st112{fill:#F7A620;}
	.st113{fill:#F59B1F;}
	.st114{fill:#223968;}
	.st115{fill:#494240;}
	.st116{fill:#E3DCC8;}
	.st117{fill:#DAA042;}
	.st118{fill:#EAB459;}
	.st119{fill:#F1E0AD;}
	.st120{fill:#CDB386;}
	.st121{fill:#EECD8A;}
	.st122{fill:#F7C56C;}
	.st123{fill:#D0AF73;}
	.st124{fill:#FBA319;}
	.st125{fill:#C7A266;}
	.st126{fill:#D49360;}
	.st127{fill:#2E4787;}
	.st128{fill:#78A9BE;}
	.st129{fill:#2E3C63;}
	.st130{fill:#C1E4FA;}
	.st131{fill:#A4D4FC;}
	.st132{fill:#31467A;}
	.st133{fill:#22355A;}
	.st134{fill:#E08129;}
	.st135{fill:#D8945D;}
	.st136{fill:#F3E7DC;}
	.st137{fill:#E08128;}
	.st138{fill:#E8EDF3;}
	.st139{fill:#BBCBDE;}
	.st140{fill:#DF8127;}
	.st141{fill:#BACBDE;}
	.st142{fill:#C7CFDB;}
	.st143{fill:#F0921B;}
	.st144{fill:#4E74C7;}
	.st145{fill:#F7A419;}
	.st146{fill:#CA7E47;}
	.st147{fill:#DE822F;}
	.st148{fill:#F7A21B;}
	.st149{fill:#EBAC3B;}
	.st150{fill:#E8A93E;}
	.st151{fill:#D59360;}
	.st152{fill:#F8A218;}
	.st153{fill:#7498EE;}
	.st154{fill:#4C73C7;}
	.st155{fill:#2E4B91;}
	.st156{fill:#FBA515;}
	.st157{fill:#F4A521;}
	.st158{fill:#F29921;}
	.st159{fill:#A08B87;}
	.st160{fill:#3F3131;}
	.st161{fill:#504548;}
	.st162{fill:#243967;}
	.st163{fill:#E17D2A;}
	.st164{fill:#819ED0;}
	.st165{fill:#8FADEA;}
	.st166{fill:#C78E35;}
	.st167{fill:#ED9E1E;}
	.st168{fill:#CB9547;}
	.st169{fill:#977F65;}
	.st170{fill:#C49E59;}
	.st171{fill:#3C435A;}
	.st172{fill:#4B3E45;}
	.st173{fill:#2B4588;}
	.st174{fill:#D6915F;}
	.st175{fill:#4A74C9;}
	.st176{fill:#4C74C8;}
	.st177{fill:#31478A;}
	.st178{fill:#2A488E;}
	.st179{fill:#7B9ADC;}
	.st180{fill:#2B478E;}
	.st181{fill:#A2C5FC;}
	.st182{fill:#C5D5E9;}
	.st183{fill:#EBE9E9;}
	.st184{fill:#EDEFF2;}
	.st185{fill:#233763;}
	.st186{fill:#607DBC;}
	.st187{fill:#AED1FE;}
	.st188{fill:#A0D6ED;}
	.st189{fill:#CB8048;}
	.st190{fill:#4F446C;}
	.st191{fill:#CF976C;}
	.st192{fill:#FCA514;}
	.st193{fill:#E88814;}
	.st194{fill:#C27E6D;}
	.st195{fill:#A1583E;}
	.st196{fill:#3C3E55;}
	.st197{fill:#E88D14;}
	.st198{fill:#314F8A;}
	.st199{fill:#A0D2F4;}
	.st200{fill:#EB8D17;}
	.st201{fill:#304988;}
	.st202{fill:#E6A12B;}
	.st203{fill:#4E4D5F;}
	.st204{fill:#F1A625;}
	.st205{fill:#C08219;}
	.st206{fill:#BF8F43;}
	.st207{fill:#865A18;}
	.st208{fill:#E1AA46;}
	.st209{fill:#FCD99C;}
	.st210{fill:#E3BA71;}
	.st211{fill:#E5B762;}
	.st212{fill:#FDDD9C;}
	.st213{fill:#95661D;}
	.st214{fill:#C5A984;}
	.st215{fill:#5D4734;}
	.st216{fill:#B89D81;}
	.st217{fill:#D1A062;}
	.st218{fill:#C9A56D;}
	.st219{fill:#82591C;}
	.st220{fill:#C6A16F;}
	.st221{fill:#DAA852;}
	.st222{fill:#E8F1F8;}
	.st223{fill:#FDA312;}
	.st224{fill:#F8A419;}
	.st225{fill:#E38411;}
	.st226{fill:#E18408;}
	.st227{fill:#D9B890;}
	.st228{fill:#72554A;}
	.st229{fill:#FCA515;}
	.st230{fill:#E88B0C;}
	.st231{fill:#483943;}
	.st232{fill:#C99E7F;}
	.st233{fill:#B89666;}
	.st234{fill:#98856D;}
	.st235{fill:#754E09;}
	.st236{fill:#EC900F;}
</style>
<rect x="163.8" y="65.2" transform="matrix(0.6121 -0.7908 0.7908 0.6121 12.0814 160.341)" class="st0" width="11.3" height="5.2"/>
<path class="st1" d="M78.1,50.1c1.5,0.4,2.9,0.7,4.4,1.1c0.5,0.2,1,0.4,1.3,0.9c0.1,0.2,0.2,0.4,0.2,0.6c0.3,0.4-0.4,0.8,0.5,1.3
	c2.1,1.1,2.9,3.3,3.6,5.4c0.4,1.1-0.6,2-1.7,2.4c-2.1,0.8-2.6,2.4-2.5,4.4c0,0.6,0.4,0.2,0.6,0.3c0.8,1.3,0.5,2.9,0.6,4.3
	c0.2,2.5-0.3,5.1-0.1,7.7c0.1,0.6,0.1,1.4-0.6,1.6c-0.6,0.2-0.8-0.5-1.2-0.9c-1-1.3-2.1-2.4-2-4.4c0.1-1.3-1.1-2-2.6-2
	c-3.3,0-6.4-1.2-9.7-1.6c-1-0.1-1.5-1-2-1.8c-0.5-0.8-0.7-1.7-1.1-2.6c-0.5-1-1.2-1.4-1.7-0.1c-0.6,1.6-1.8,2.9-2.1,4.6
	c-0.2,1.1-0.9,1.9-2.1,2.2c-1.4,0.3-2.6,1.3-4.1,1c-0.9-1.7-1.1-3.4-0.7-5.3c0.6-2.5,0.8-5.1,1.7-7.6c0.7-2.9,1.9-5.6,3.3-8.2
	c0.6-1.2,1.8-1.5,2.9-2c2.2-0.8,4.4-1.5,6.8-0.9c2,0.9,4,1.3,6-0.3C76.5,49.7,77.4,49.9,78.1,50.1z"/>
<path class="st2" d="M240.6,137.3c-0.1,4.7-0.2,9.3-0.3,14c-0.1,0.2-0.3,0.4-0.5,0.4c-0.7,0.2-1.4,0.2-2.1-0.3
	c-0.2-0.2-0.3-0.4-0.4-0.7c-0.6-2.7-0.9-5.4-0.4-8.1c0.1-0.7,0-1.4-0.2-2.1c-0.3-5-0.1-10.1-0.2-15.1c0-6.9,0-13.8,0-20.7
	c0-2.2,0-4.4,1-6.4c0.8-0.6,1.7-0.6,2.6-0.1c0.6,0.5,0.9,1.3,0.8,2.1c-0.7,10.9-0.1,21.9-0.3,32.9
	C240.8,134.5,241.4,135.9,240.6,137.3z"/>
<path class="st3" d="M230.6,153.6c-14.6,0-29.2,0.1-43.9,0.1c-33.2,0-66.4,0-99.6,0c-0.8,0-1.5,0-2.3-0.1c-3-0.3-6-0.3-9.1,0
	c-0.2,0-0.3,0-0.5,0c-0.4-0.3-1.6-0.2-0.6-1.2c1.8-0.6,3.7-0.3,5.6-0.3c1.5-0.1,3,0.1,4.4-0.4c0.3,0,0.5,0,0.8,0.1
	c0.6,0.6,1.4,0.9,2.3,0.8c3.4-0.1,6.8,0.1,10.2-0.1c0.2-0.1,0.5-0.2,0.7-0.2c1.2-0.2,2.4-0.2,3.6,0c0.2,0,0.5,0.1,0.7,0.2
	c1,0.3,2.1,0.2,3.1,0.2c0.5,0,1,0,1.5,0c3.5-0.1,6.9,0.3,10.4-0.2c0.3-0.1,0.5-0.1,0.8-0.2c1.4-0.2,2.7-0.1,4.1-0.1
	c3.7,0,7.5-0.2,11.2,0.1c0.4,0.1,0.8,0.2,1.1,0.3c2.1-0.1,4.3,0.6,6.3-0.4c0.4-0.3,0.6-0.9,1.2-0.8c1.2,0.6,2.4,0.8,3.7,0.8
	c3.6,0,7.3-0.1,10.9,0c3.6,0,7.3,0.1,10.9-0.1c0.3,0,0.5,0.1,0.7,0.2c1.7,0.8,3.6,0.3,5.4,0.4c0.4-0.1,0.7-0.2,1.1-0.3
	c1.7-0.2,3.4-0.3,5.1,0c2.2,0.4,4.5,0.5,6.7-0.1c6.1-0.3,12.3-0.3,18.4,0c0.4,0.1,0.8,0.2,1.2,0.3c2.8,0.2,5.6,0,8.5,0.1
	c0.5,0,0.9,0,1.3-0.3c0.2-0.1,0.4-0.2,0.6-0.2c0.3,0,0.7,0.2,1,0.3c2.5,0.4,5.1,0.1,7.6,0.1c0.7,0,1.5,0,2.2-0.3
	c0.7-0.2,1.5-0.2,2.2-0.2c2.5-0.2,5.2,0.5,7.6-0.9c0,0.1,0.1,0.2,0.1,0.3c0.5,0.7,0.5,1.3,0,1.9C235.4,153.7,233,153.2,230.6,153.6z
	"/>
<path class="st4" d="M66.7,40.6c-2.9-2.3-2.2-8.1,1.2-10.4c4.7-3.2,9.1-1.4,11.3,4.5c0,0.1,0,0.2,0,0.3c-2,2.4-3.3,2.4-5.3,0.3
	c-1.2-1.4-2.8-2.4-3.9-2.4c-0.2,0.2-0.4,0.3-0.6,0.4c-0.8,0.2-1.8-0.5-2.3,0.4c-0.6,1.1-0.8,2.4-0.8,3.6c0,1.2,0.9,1.8,2,1.6
	c1.2-0.2,0.7-1,0.4-1.8c-0.5-1.7,0.9-2.2,1.9-2c1.1,0.3,1.1-0.5,1.6-0.8c1.4,0.5,2.2,1.5,2.2,3.1c-0.8,0.7-2,0.2-2.8,0.9
	C70.4,39.9,69.1,41.3,66.7,40.6z"/>
<path class="st5" d="M69.5,45c-0.3-0.3-0.5-0.6-0.8-0.8c0.2-1.6,0.6-3.2,2.3-4c0.6-0.3,0.6-1.2,1-1.8c0.3-0.4,0.6-0.7,1.1-0.9
	c1.4-0.5,3-0.5,4.4-0.7c0.2,0,0.5,0.1,0.6,0.2c0,1.6,0.1,3.2,0.1,4.9c0,1.7,0.1,3.4-1.2,4.8c-0.7,0.7-0.3,1.9-0.2,2.9
	c-0.5,0.4-0.8,0-1.1-0.3c0.1-1.4-0.5-1.9-2-1.9C72,47.4,70.4,46.8,69.5,45z"/>
<path class="st6" d="M21.7,151.7c1.6-0.2,3-0.7,4.1-1.8c0.6-0.9,1.7-1,2.5-1.7c0.5-0.5,0.8-0.8,0.6-1.5c0.3-2.3,1.9-2.7,3.8-2.8
	c0.8,1.8-0.3,3.4-0.5,5.2c-0.2,0.6-0.4,1.3-0.6,1.9c-0.1,2.1-1.3,2.7-3.2,2.5c-2.3-0.2-4.5,0-6.8-0.1c-0.5,0-1.3,0.4-1.3-0.7
	C20.5,152.1,21.2,152.1,21.7,151.7z"/>
<path class="st7" d="M28.1,70.3c0.4-0.8,0.8-0.2,1.3-0.1c1.4,0.9,3.1,1,4.4,2.2c0.2,0.7-0.1,1.4-0.3,2c-0.4,0.7-0.7,1.4-1,2.1
	c-0.4,0.8-0.8,1.4-1.6,1.8c-1.7,0.3-3.8,1.4-5.1-0.5c-1.2-1.7,0-3.6,0.8-5.2C27.1,71.9,27.3,70.9,28.1,70.3z"/>
<path class="st8" d="M20.4,106.3c-0.6-2.9,0.4-5.8-0.1-8.7c-0.1-0.8,0-1.7-0.4-2.5c0.2-1.8-0.2-3.7,0.4-5.6c1.2-0.9,1.9,0,2.5,0.8
	c0.1,0.2,0.2,0.5,0.3,0.8c0.3,4.1,0.1,8.1,0.1,12.2c0,1.1,0.1,2.2-0.3,3.3c-0.3,0.5-0.8,0.6-1.3,0.6C21,107.1,20.6,106.8,20.4,106.3
	z"/>
<path class="st9" d="M227.9,87.2c-0.1,1.2,0.4,2.1,1.3,2.7c-0.1,0.1-0.2,0.2-0.2,0.3c-1.5,0.6-2.2-0.3-2.7-1.5
	c-0.6-1.6-1.2-3.1-1.6-4.8c0-4-1.7-7.5-3.2-11.1c-0.2-0.6-0.8-1.2-0.5-1.9c2,0.6,4.2,0.7,5,3.3C226.6,78.4,227.3,82.8,227.9,87.2z"
	/>
<path class="st10" d="M29,63.8c-0.1-0.5-0.3-1-0.4-1.4c0.2-0.9-0.3-1.9,0.3-2.8c0.2-0.2,0.4-0.2,0.7-0.2c1.8,0.1,3.5,0.2,5.2-0.1
	c0.4-0.1,0.7,0,1,0.1c1.1,0.7,0.8,1.9,1,2.9c0.1,0.5-0.1,0.9-0.2,1.3c-0.4,0.8-0.3,1.8-1,2.4c-1.9,0.3-3.9,0.5-5.8,0
	C29.1,65.3,29.4,64.4,29,63.8z"/>
<path class="st11" d="M20.3,152.7c3.2,1.1,6.5,0.4,9.8,0.4c1.4,0,0.3-1.9,1.1-2.7c0.6,0.4,0.6,1,0.8,1.6c0.1,1,0.8,0.5,1.3,0.6
	c1.9-0.1,3.9-0.1,5.8-0.1c1.1,0.2,2.1-0.3,3.2-0.4c0.2,0.1,0.5,0.2,0.7,0.3c7.3,0.3,14.5,0.1,21.8,0.1c2.2-0.1,4.4-0.1,6.6,0
	c0.7,0,1.4,0,2,0.4c0.3,0.2,0.3,0.4,0.2,0.7c-16.2,0-32.4,0.1-48.7,0.1c-5.3,0-10.6,0-15.8,0c0-0.2,0-0.5,0-0.7
	C12.8,152.9,16.5,152.8,20.3,152.7z"/>
<path class="st12" d="M33.5,72.6c-1.4-0.7-3.4-0.4-4.2-2.3c0.1-1.2,0.1-2.5,0.2-3.7c2.1,0.5,4.3,0.1,6.4,0.1c0,0.8,0.1,1.6,0.2,2.5
	C35.2,70.3,35,71.9,33.5,72.6z"/>
<path class="st13" d="M54.4,75c-1.4-0.2-2.4-1.4-3.8-1.8c-1.4-0.4-0.8-2-0.7-3c0-1.1,0.9-1.3,1.8-1.3c1.1,0,2.1,0.1,3.1,0.5
	c0.6,1.8,0.6,3.6,0.7,5.5C55.2,75.3,54.8,75.2,54.4,75z"/>
<path class="st14" d="M75.8,49.2c0.3,0.1,0.7,0.3,1,0.4c0.5,0,1,0,1.3,0.5c-0.6,0.1-1.4,0-1.7,0.3c-2,2.2-4.2,1.7-6.5,0.6
	c-0.5-0.5-1.6-0.7-0.9-1.8c-0.1-1,0.2-1.9,0.5-2.9c0.6-0.2,1.1,0.1,1.4,0.5C72.2,48.5,74.3,48.3,75.8,49.2z"/>
<path class="st15" d="M35.8,59.6c-0.3,0-0.6-0.1-0.9-0.1c-0.3-0.3-0.3-0.6-0.1-0.9c2.1-0.7,2.2-1,0.9-2.7c-1.5-2-2.8-2.3-5.3-1.2
	c-0.3,0.2-0.6,0.6-0.8,0.9c-1,1.2-0.9,2.7-1.1,4c-0.2,0.1-0.4,0.1-0.6,0c-0.8-2.3-0.1-4.7,1.8-6.1c1.8-1.3,4-1.3,5.9,0.1
	c2,1.5,2.6,3.7,1.7,6.4C36.8,60.1,36.3,59.9,35.8,59.6z"/>
<path class="st16" d="M122.3,31.9c1.3-0.3,2.6-1.1,4-1c0.3,0.4,0.1,0.6-0.2,0.9c-1.3,0.7-2.5,1.4-3.8,1.9c-2.6,1-3.2,3.5-3.5,6
	c-0.2,1.4,0,2.9-1.2,4.1c-0.7,0-0.4-0.6-0.6-1c0.3-2,0.7-4,1-5.9C118.3,34.2,120.1,32.8,122.3,31.9z"/>
<path class="st17" d="M72.3,38.5c0,1.4-0.3,2.6-1.9,2.9c-1.6,0.3-0.4,2.4-1.7,2.8c-0.7-1.2-1.3-2.4-2-3.6c2-0.3,3.8-1,4.6-3.1
	c0.1,0,0.2,0,0.3,0.1C72,37.7,72.4,37.8,72.3,38.5z"/>
<path class="st18" d="M75.8,49.2c-2.7,0.4-4.6-1-6.3-2.8c0-0.5,0-0.9,0-1.4c1.5,1.1,2.9,2.2,4.9,1.8C76.7,46.5,76.6,47.6,75.8,49.2z
	"/>
<path class="st19" d="M20.8,85.3c0.3-3.2,0.7-6.4,1-9.6c0.3-3,2-4.5,4.8-4.9c0.3,0.3,0.1,0.6-0.1,0.9c-0.1,0.2-0.3,0.3-0.5,0.5
	c-2.8,1.4-2.9,4.1-3.1,6.7c0,0.3-0.1,0.6-0.2,0.9c-0.7,0.9-0.5,2-0.6,3.1c0,0.3-0.1,0.7-0.2,1C21.7,84.4,21.7,85.3,20.8,85.3z"/>
<path class="st20" d="M230.6,153.6c2.4-0.8,4.8-0.2,7.2-0.4c0.8-0.6,1.7-0.9,2.3-1.8c0.1,0,0.2-0.1,0.2-0.1c0.1,1.3,0.7,1.6,1.9,1.6
	c3.3-0.1,6.6,0,10.2,0c-0.4,0.9-0.9,0.8-1.4,0.8c-2.6-0.3-5.1-0.3-7.7,0C239.1,153.6,234.8,153.6,230.6,153.6z"/>
<path class="st21" d="M69,49.3c-0.1,0.8,0.7,1.2,0.9,1.8c-5.2-1.4-8.9,0.5-11,5.6c-0.6,1.6-1.2,3.2-1.8,4.7c-0.1,0.2-0.3,0.2-0.4,0
	c0.5-3,1.8-5.8,3.3-8.3c1.2-2.1,3.7-2.3,5.7-2.9C66.8,49.9,68,49.8,69,49.3z"/>
<path class="st22" d="M22.6,79.7c0-0.3,0-0.6,0-0.9c0.3-0.2,0.5-0.1,0.7,0.2c0.6,3.7,0.5,7.4,0.1,11c-0.1,0.3-0.4,0.4-0.7,0.4
	l-0.2-0.1c-0.6-1.2-2.6-1.6-1.9-3.6c0-0.2,0-0.3,0.1-0.5c0.7-0.6,0.5-1.6,0.9-2.3c0-0.3,0-0.6,0-0.9C22.3,82,21.8,80.6,22.6,79.7z"
	/>
<path class="st23" d="M56.7,61.4c0.1,0,0.3,0,0.4,0c-0.4,1.9-0.7,3.8-1.2,5.7c-0.6,2.5-0.6,5,0.3,7.4c0.3,0.2,0.3,0.5,0.1,0.8
	c-0.1,0.2-0.3,0.3-0.5,0.3c-0.3-0.1-0.5-0.3-0.6-0.6c-0.2-1.9-0.3-3.7-0.5-5.6C55.3,66.7,55.6,63.9,56.7,61.4z"/>
<path class="st24" d="M35.7,66.5c-2.1,1.6-4.1,1.2-6.2,0c-0.1-0.1-0.1-0.3-0.1-0.4c-0.2-0.5,0-0.6,0.5-0.5c1.8-0.3,3.6-0.4,5.5,0
	c0.4-0.1,0.6,0.1,0.7,0.5C36,66.3,35.9,66.4,35.7,66.5z"/>
<path class="st25" d="M60.8,79.4c-0.5,0.1-0.9,0.2-1.4,0.2c-0.1-0.1-0.2-0.3-0.3-0.3c-1.9-1-4-1.9-4.7-4.3c0.3,0,0.6,0,0.9,0
	c0.2,0.2,0.4,0.3,0.5,0.5c0.9,1,2.3,1.4,3.3,2.2C59.8,78.2,60.7,78.4,60.8,79.4z"/>
<path class="st26" d="M78.1,37.1c-0.2,0-0.3,0-0.5,0c-0.3,0.3-0.6,0.2-0.9,0.1c-0.2-1,0.6-0.9,1-1c0.7-0.2,1.2-0.5,1.2-1.3
	c0.1-0.1,0.1-0.1,0.2-0.2c1,0.2,2,0.4,3.4,0.7C80.9,36.6,79.5,36.8,78.1,37.1z"/>
<path class="st27" d="M116.9,42.7c0.1,0.3,0.2,0.6,0.3,0.9c1.3,2.3-0.1,4.6,0,6.9c0,0.4-0.2,0.9-0.3,1.3c-0.2,0.5-0.3,1.1-1,1.1
	c0.1-1.9,0.2-3.8,0.3-5.6C116.5,45.8,116.7,44.3,116.9,42.7z"/>
<path class="st28" d="M20.7,86.7c0.3,1.4,2,2,1.9,3.6c-0.8-0.2-1.4-1-2.3-0.7C20.3,88.6,20.1,87.6,20.7,86.7z"/>
<path class="st29" d="M75.9,153.6c3-0.6,6-0.6,9.1,0C81.9,153.6,78.9,153.6,75.9,153.6z"/>
<path class="st30" d="M243.3,153.6c2.6-0.6,5.1-0.6,7.7,0C248.5,153.6,245.9,153.6,243.3,153.6z"/>
<path class="st31" d="M37.1,61.8c-0.2,0.2-0.3,0.4-0.5,0.6c-0.8-0.8-0.1-2-0.8-2.7c0.5-0.1,1.1-0.1,1.5,0.4
	C37.2,60.6,37.2,61.2,37.1,61.8z"/>
<path class="st32" d="M27.9,59.6c0.2,0,0.4-0.1,0.6-0.1c0.2-0.1,0.4-0.1,0.5,0.2c-0.1,0.9,0.3,1.9-0.4,2.7
	C28,61.5,28,60.6,27.9,59.6z"/>
<path class="st33" d="M26.3,71.7c0.1-0.3,0.2-0.7,0.3-1c0.4-0.3,0.9-0.6,1.4-0.4c0,0.9-0.4,1.6-0.9,2.3
	C26.7,72.6,26.4,72.2,26.3,71.7z"/>
<path class="st28" d="M21.7,83.9c0,0.9,0.1,1.8-0.9,2.3c0-0.3,0-0.6,0-0.9C21.1,84.8,21.4,84.4,21.7,83.9z"/>
<path class="st34" d="M29.9,65.6c-0.2,0.2-0.3,0.3-0.5,0.5c-0.7-0.7-0.5-1.5-0.4-2.3C29.3,64.4,29.6,65,29.9,65.6z"/>
<path class="st29" d="M73.6,153.6c0-0.1,0-0.2,0-0.3c0-0.3,0.2-0.6,0.5-0.7c0.2,0,0.3,0.1,0.4,0.4c0.3,0.2,0.6,0.4,0.9,0.7
	C74.8,153.6,74.2,153.6,73.6,153.6z"/>
<path class="st35" d="M64.7,144.7c-0.5-7.5-1.1-15-1.5-22.5c-0.5-9.6-0.7-19.3-1-28.9c0-1.4-0.2-2.8,0.3-4.2c0.8-0.4,1.6,0,2.4,0.3
	c2.5,1.1,5.1,1.1,7.7,1.3c2,0,4-0.1,6,0.1c2.4,0.9,1,2.8,1,4.3c-1,5.1-1.4,10.4-2.1,15.6c-0.3,2.4-0.8,4.7-0.9,7.1
	c-0.3,0.8-0.7,1.6-0.5,2.6c-0.8,7.6-1.9,15.2-3,22.8c-0.3,2.4,0,5-1.5,7.2c-0.6,0.5-1.4,0.5-2.2,0.6c-3.5,0.4-4.7-0.7-4.7-4.4
	C64.7,146,64.9,145.3,64.7,144.7z"/>
<path class="st36" d="M50.5,144.3c1.1,0.3,2-0.5,3-0.5c0.1,1.1,0.8,1.8,1.6,2.3c2,1.3,3.9,2.7,5.7,4.3c0.6,0.5,1.9,1.3,0.2,2.2
	c-5.5,0.1-11.1,0-16.6,0c-2.1,0-2.8-0.9-2.1-2.9c0.5-1.3,0.4-2.6,0.5-3.9c0.2-2.4,2.4-3.6,4.5-2.7c1.1,0.5,0.6,1.4,0.7,2.2
	C49.8,147,49.9,145,50.5,144.3z"/>
<path class="st37" d="M61.7,152.2c-2.2-2.7-5.2-4.4-8-6.4c-1.1-0.8-1.2-1.2-0.2-2c3.9-2.1,7.5-0.5,11,1.3c0.8,2.3,1.3,4.6,0.8,7.1
	c-0.6,0.8-1.5,0.8-2.4,0.7C62.5,152.8,62,152.7,61.7,152.2z"/>
<path class="st38" d="M64.9,152.3c0.4-2.4,0-4.8-0.4-7.1c0.1-0.1,0.2-0.3,0.2-0.4c1,0.5,0.6,1.5,0.6,2.2c0.1,3.1,0.4,3.4,3.4,3.4
	c0.8,0,1.6-0.5,2.4-0.1c0.1,0.1,0.2,0.1,0.3,0.2c0.4,0.9,0.7,1.7,0.2,2.7c-2.2,0-4.5,0-6.7,0C64.6,152.9,64.6,152.6,64.9,152.3z"/>
<path class="st39" d="M61.7,152.2c0.3,0.1,0.6,0.3,0.9,0.4c-0.6,0.5-1.3,0.3-2,0.3c-5.5,0-11,0-16.5,0c-0.7,0-1.4,0.2-2-0.3
	c0-0.1-0.1-0.3-0.1-0.4c-0.6-0.8-0.5-1.7-0.3-2.6c0.2-0.7,0.3-1.5,0.5-2.2c0.6-1.4-0.4-3.2,1-4.4c1.2-0.1,2.3-0.2,3.5-0.2
	c0.9,0.3,1.8,0.6,2.7,0.9c0.3,1.5-1.2,2-1.8,3c-0.5-0.3-0.5-0.8-0.4-1.2c0.1-0.7,1.5-1.8-0.4-2c-1.4-0.2-3-0.3-3.2,1.7
	c-0.2,1.9,0,3.8-0.9,5.7c-0.6,1.4,0.7,1.5,1.7,1.5C50.2,152.2,56,152.3,61.7,152.2z"/>
<path class="st40" d="M72.2,91.4c-3.4-0.2-6.6-0.7-9.7-2.2c-0.1-0.2-0.1-0.3-0.2-0.5c0.1,0,0.2,0,0.3,0c1.1-0.8,2,0.2,3,0.3
	c1.4,0.2,2.8,0.8,4.2,0.9c0.5,0,0.9,0.1,1.3,0.2c0.4,0.1,0.8,0.4,1.1,0.7C72.4,91,72.3,91.2,72.2,91.4z"/>
<path class="st41" d="M40.4,70.8c2.1,0.7,2.9,2.5,3.6,4.4c1.4,3.9,2,7.9,2.3,12c0,0.6,0.3,1.2,0.4,1.8c-0.7,0.8-0.3,1.8-0.5,2.7
	c-0.5,1.6-2,1.1-3.1,1.4c-0.4,0-0.7,0-1-0.3c-0.6-1.6-1.1-3.2-1.2-4.9c0.6-1,0.2-2.1,0.2-3.4c0,0-0.5,0.3-0.2,0.2c0,0,0.1,0,0.1,0.1
	c0,0.7,0.5,1.5,0,2.2c-0.8,0.5-0.9-0.2-1.1-0.7c-0.3-0.7,0-1.6-0.4-2.4c-0.8-0.1-1.9,1.9-2.6-0.1c-0.1-0.3-0.1-0.6-0.1-1
	c0.1-1.2,0.7-2.5-0.2-3.7c-2.1-1.2-1.3-2.9-0.8-4.6c0.6-1.5,1-3.1,2.1-4.3c0.2-0.1,0.4-0.2,0.6-0.2C39.2,70.1,39.9,70.3,40.4,70.8z"
	/>
<path class="st42" d="M45.8,91.3c0.1-0.8-0.5-2,0.9-2.3c0,0.3,0.1,0.6,0.1,0.9c0,0.5,0,0.9-0.1,1.4C46.4,91.7,46.1,91.7,45.8,91.3z"
	/>
<path class="st43" d="M40.4,70.8c-0.7,0-1.4,0.2-1.9-0.4c0.1-0.5,0.6-0.6,1-0.8c0-0.1,0-0.2,0-0.3C39.9,69.6,40.4,70.1,40.4,70.8z"
	/>
<path class="st35" d="M111.7,148c-0.6-1.2-0.5-2.4-0.2-3.6c2.1-10.3,3.2-20.7,3.9-31.2c0.6-8.2,1-16.4,1.5-24.7
	c0.9-0.1,1.2,0.5,1.5,1.1c3.6,7.7,7.6,15.1,11,22.9c0.1,0.2,0.1,0.4,0.2,0.7c0,4.3-0.7,8.5-1.7,12.6c-1.4,5.8-2.9,11.5-5.1,17
	c-0.9,2.5-1.9,5-3.1,7.4c-0.2,0.5-0.4,1-1,1.1c-0.3-0.1-0.5-0.4-0.7-0.7C116.1,149.3,113.6,149.4,111.7,148z"/>
<path class="st44" d="M129,112.9c-3.7-7.6-7.4-15.3-11-22.9c-0.3-0.6-0.5-1.2-1.1-1.5c0-1.1-0.1-2.2-0.1-3.3c-0.6-3-0.3-5.9,1.2-8.6
	c2.7,0.2,5.3,1,7.8,2.1c1.2,2.6,1.2,5.4,1.6,8.2c0.9,7.7,2,15.4,2.9,23.1c0.1,0.7,0.2,1.4,0.1,2.1
	C130.1,112.8,129.6,112.9,129,112.9z"/>
<path class="st45" d="M118.1,76.6c-0.8,2.8-0.7,5.8-1.3,8.7c-2.7-2.1-2.9-2.6-1.7-5.8c0.5-1.2,0.4-2.4,0.3-3.7
	c-0.6-5.4-0.9-10.9-0.3-16.3c1.4-1,2.6-0.7,3.8,0.5c0.8,1.9,0.5,3.8,0.4,5.8C119.1,69.4,118.8,73,118.1,76.6z"/>
<path class="st46" d="M111.7,148c2.3-0.1,4.2,1.6,6.5,1.7c0.1,0,0.2,0.5,0.3,0.8c-0.2,0.3,0,0.9-0.2,1c-1.3,1.1,0.9,0.1,0.4,0.7
	c0.1,0.2,0.1,0.4-0.1,0.5l-0.2,0l-0.2,0c-2.7,0.5-5.5,0.1-8.2,0.2c-0.9,0-1.8-0.2-2.7,0.2c-0.5,0-0.9,0-1.4,0
	c-0.5-0.6-2.3,0.6-1.8-1.4c0-0.1,0-0.2,0.1-0.4c0.1-0.2,0.2-0.2,0.4-0.1c1-0.1,2-0.2,2.9-0.8C109.1,150.2,110.4,149.1,111.7,148z"/>
<path class="st47" d="M118.6,60c-1.2-0.4-2.3-0.6-3.6-0.5c-0.2-2.2,0.5-4.4,0.9-6.5c0.1-0.3,0.3-0.6,0.4-0.9
	c0.7-1.3,0.8-2.8,1.3-4.2c0.2-0.5,0.6-1,1.2-1c0.6,0,0.8,0.7,0.8,1.2c0.3,3.9,0.2,7.8-0.5,11.6C119.1,60,118.8,60,118.6,60z"/>
<path class="st4" d="M85.8,54.4c0.5,0.4,0.4,1.4,1.3,1.4c1.2,1.4,2.1,3,2.8,4.7l0,0c0.9,0.7,1.4,1.7,1.7,2.8
	c1.1,1.4,1.8,3.1,2.2,4.8c0.2,1,0.7,1.9,0.5,3c-2.1,1.4-4.7,0.5-5.4-1.7c-0.4-1.4-1.1-2.7-1.8-4c-0.3-0.5-0.5-1.2-1.1-1.1
	c-0.8,0.1-0.4,1-0.7,1.5c-0.2,0.6-0.9,0.4-1.3,0.8c-0.1,0.3-0.2,1.1-0.5,0.6c-0.9-1.4,0.4-4.9,2-5.8c2.8-1.6,2.8-1.6,1.1-4.4
	c-0.4-0.6-1-1.2-1.4-1.8c-0.6-1-1-1.7-1.8-0.2c0.1-0.8,0.1-1.7,0.2-2.5C84.9,52.4,85.2,53.7,85.8,54.4z"/>
<path class="st48" d="M84,66.6c0-0.8,0.4-0.7,0.9-0.5c0.7,0.6,0.8,1.3,0.8,2.2c-0.1,2.5-0.1,5.1-0.1,7.6c0.6,3.4,0.5,6.8,0.3,10.2
	c-0.1,0.3-0.2,0.5-0.3,0.7c-1.2,0.9-1.4,0-1.6-0.9c-0.2-1.3,0-2.6-0.1-3.6c-0.4,2.3-1.4,3-3.9,2.1c-0.9-0.3-1.8-0.4-2.6-0.8
	c-0.5-0.4-0.3-0.8,0-1.2c0.6-0.4,1.3-0.1,2-0.1c0.3,0,0.6,0,1,0.1c2.2-0.2,2.6-1.1,1.5-3.2c-0.4-0.3-0.9-0.5-1.3-0.9
	c-0.6-0.7-0.3-1.4-0.1-2.1c0.2-0.9,0.3-1.8-0.9-2.2c-3.2-0.8-6.5-1.1-9.8-1.7c-0.7-0.1-1.5-0.1-2.1-0.7c-1-1.3-1.5-2.8-2.2-4.2
	c-0.2-0.2-0.2-0.8-0.7-0.3c-0.6,1.1-0.9,2.4-1.3,3.5c-0.5,0.9-1,1.8-1.1,2.8c-0.1,0.2-0.3,0.3-0.5,0.4C60,74,58.3,75,56.5,75.6
	c-0.1,0-0.2-0.1-0.3-0.1c0-0.3,0-0.6,0-0.9c1-0.9,2.4-1.4,3.6-1.7c1.1-0.2,1.7-0.9,1.7-1.5c-0.1-2.2,1.9-3.3,2.2-5.2
	c0.1-0.5,0.3-1.2,1-1.2c0.7,0,1.3,0.5,1.6,1.2c0.4,1,0.8,2,1.2,3c0.3,0.7,0.7,1.5,1.3,1.5c3.7-0.1,7.1,2,10.8,1.5
	c1.3-0.2,1.6,1.4,2.2,2.3c0.6,0.9-1,2.3,0.4,2.9c1.1,0.5,1.1,1.7,2.2,2.8C83.7,75.3,85.1,70.9,84,66.6z"/>
<path class="st49" d="M85.8,54.4c-0.8-0.6-1.5-1.2-2.3-1.9c0-0.2,0-0.3,0-0.5C84.8,52.3,85.6,53.1,85.8,54.4z"/>
<path class="st50" d="M128.6,29.5c0.2-2.2,0-4.4-0.4-6.5c-0.3-0.4-0.4-1.1-0.1-1.3c1.5-0.9-0.2-1-0.3-1.5c-0.1-0.3-0.3-0.6-0.4-0.9
	c0.2-1.2-0.6-2.5,0.1-3.7c0.3-0.3,0.6-0.4,0.9-0.3c0.8,0.5,0.4,1.2,0.4,1.8c-0.1,0.3,0.4,0,0.1,0c-0.1-0.9,0.4-1.5,1.2-1.9
	c0.7-0.2,1.3-0.2,1.8,0.5c0.1,0.5-0.5,0.5-0.6,0.8c0.7,0.1,1.4,0.5,2.1,0.4c0.4-0.1-0.3-0.7,0-1.2c0.5-0.8,1.3-0.8,2.1-0.6
	c1.3,0.4,0.6,1.7,1.1,2.5c1.2-0.3,0.5-2.2,1.7-2.3c0.2,0.1,0.4,0.2,0.5,0.4c0.3,0.8,0.3,1.6,0.1,2.4c-0.6,1.4-1.9,1.6-3.2,1.7
	c-1.4,0.1-3.2-0.1-2.8,2.4c0.1,0.7-0.6,1-1.1,1.3c-0.8,0.4-1.7,0.8-2,1.7c1.7,3.7,3.4,4,6.3,1.2c0.5-0.5,0.9-1.1,1.7-0.7
	c0.3,1.2-0.2,2.5,0.1,3.8c0.1,2.8-1.3,5-2.7,7.2c-0.4,0.3-0.7,0.5-1.2,0.3c-0.6-1.4,0.9-2.2,0.9-3.6c-2-0.1-4.2-0.9-5.8,1.3
	C127.9,33.1,128.5,31.3,128.6,29.5z"/>
<path class="st51" d="M137.7,29.5c0-1.2-0.1-2.5-0.1-3.7c-1.6,0.6-3.2,1.2-5,1.1c-1.3-0.1-2.5-0.6-3.5-1.5c0-1.6,1.4-2,2.3-2.3
	c1.4-0.4,1.4-0.9,0.8-1.9c-0.6-1.2,0-1.2,1-1.6c1.8-0.6,3.9,0.3,5.4-1.3c0.5,0.4,0.2,0.9,0.4,1.4c-0.2,0.6-0.4,1.2-0.2,1.9
	c-0.3,2.6-1,5.2-0.6,7.9C138,29.7,137.9,29.7,137.7,29.5z"/>
<path class="st52" d="M140.5,14.7c0,0.1,0,0.3,0.1,0.4c-0.3,1.6-0.6,3.2-1.6,4.6c-0.1-0.5-0.2-0.9-0.4-1.4c0-0.9-0.1-1.9-0.1-2.8
	c0-0.8,0.5-1,1.1-1.2C140,14.3,140.3,14.3,140.5,14.7z"/>
<path class="st53" d="M126.3,15.5c0-0.2,0.1-0.3,0.1-0.5c0.7-0.5,1.2-0.4,1.6,0.5c-0.5,1.2,0.2,2.6-0.6,3.8
	C127,18.1,126.7,16.8,126.3,15.5z"/>
<path class="st51" d="M127.8,20.2c0.5,0.7,1.3-1.1,1.8,0.2c0.5,1.5-0.7,0.9-1.2,1.2c-0.3,0.2-0.2,0.8-0.3,1.3
	c-0.6-0.5-0.3-1.2-0.5-1.8C127.7,20.8,127.8,20.5,127.8,20.2z"/>
<path class="st44" d="M22.5,107c0-1.1,0.1-2.3,0.1-3.4c1.3-1.3,2.6-0.9,3.9,0.1c1.3,1.1,2.1,2.6,2.6,4.3c2.1,7.6,3.5,15.3,5.4,23
	c0.3,1.1,0.3,2.3,0.3,3.5c-0.6,2.2-0.5,4.5-0.9,6.8c-0.2,1-0.3,2-1.2,2.6c-0.9,1.3-3.5,0.7-3.2,3.3c-0.3,0.6-1,1.2-1.4,0.8
	c-0.9-0.7-1.5-0.1-2.3,0.4c-0.4-3.3,0.1-6.2-0.3-9.1c-0.4-6.4-0.6-12.8-1.5-19.2c0-0.2,0-0.4,0-0.6C22.5,115.3,21.9,111.2,22.5,107z
	"/>
<path class="st54" d="M25.4,139.2c0.9,2.7,0.1,5.5,0.5,8.4c1-1.9,2.4,1.1,3.5-0.4c-0.5,1.9-1.9,2.6-3.6,2.8c-1-1.7-0.3-3.6-0.4-5.4
	C25.3,142.7,25.4,140.9,25.4,139.2z"/>
<path class="st35" d="M221.1,70.8c2.2,4.1,4.4,8.2,4.1,13.1c0.8,3.5,0.8,7,0.6,10.6c0.3,3.2,0.9,6.4,0.2,9.6
	c-0.2,0.5-0.6,0.6-1.1,0.5c-2.5-0.2-3.3,0.3-4.2,2.8c-0.9,2.3-1.2,4.8-1.9,7.2c-0.2,0.8-0.3,2.1-1.1,2c-1.1-0.1-0.7-1.5-0.8-2.3
	c-0.1-0.8,0.3-1.8-0.7-2.3c-0.9-0.3-1.8-0.3-2.7-0.6c-6.6-2.8-7.2-3.9-6.3-11.4c0.3-2.2,0-4.3,0.1-6.5c0-0.7,0-1.3,0.3-1.9
	c2.4-3,2.9-6.6,2.9-10.3c0.1-1.1,0.1-2.2,1.4-2.6c0.8-0.7,1.7-0.9,2.6-1.2c1.5,0.6,3,0.4,4.5,0.4c2.3,0,2.5-0.4,1.9-2.8
	c-0.4-1.4-1.6-2.5-1.2-4.1c0.3-0.2,0.7-0.2,1,0C220.8,70.7,220.9,70.7,221.1,70.8z"/>
<path class="st55" d="M218.7,70.3c0.6,0,1.2,0,1.9,0c0,0.1,0.1,0.2,0.1,0.4c-0.3,0-0.6,0.1-1,0.1c-0.3,0.6-0.6,1.1-1.4,1.2
	c-0.2,0-0.4-0.1-0.6-0.3C217.7,71,217.8,70.3,218.7,70.3z"/>
<path class="st56" d="M239.1,100.3c0,16.3,0,32.7,0,49c-0.1,0-0.1,0-0.2,0c0-16.3,0-32.6,0-48.9C239,100.4,239.1,100.4,239.1,100.3z
	"/>
<path class="st57" d="M240.1,151.4c0.4,2.1-1,1.9-2.3,1.8c0-0.6,0-1.2,0.1-1.8C238.6,151.4,239.4,151.4,240.1,151.4z"/>
<path class="st58" d="M237.8,98.4c-0.1-0.1-0.1-0.3-0.2-0.4c0.8-0.8,1.6-0.8,2.4-0.1c0,0.2,0.1,0.3,0.1,0.5
	C239.4,98.3,238.6,98.4,237.8,98.4z"/>
<path class="st44" d="M225.5,104.5c0,5.4-1.2,10.6-1.5,16c-0.1,1.5-0.2,3.1-0.3,4.6c0.5,2,0.2,4,0.1,6c-0.3,5.7-0.6,11.3-0.4,17
	c0.1,1.6,0.6,2.5,2.1,2.9c1,0.3,2.1,0.5,2.4,1.8c-0.5,0.6-1.2,0.4-1.8,0.3c-2.9-0.6-5.8,0.2-8.6-0.4c-0.1-0.2-0.3-0.3-0.4-0.5
	c-1.5-2.9-2-6.2-2.5-9.4c-0.4-2.3-0.8-4.6-0.9-6.9c0-0.7,0-1.3,0-2c0-2.4,0.4-4.7,0.9-6.9c0.6-2.7,0.6-2.6-2.2-2.7
	c-1.8-0.1-3.6,0.5-5.3-0.6c-0.1-0.3-0.1-0.5,0.1-0.7c1.5-0.9,3.2-0.4,4.8-0.5c1.2-0.1,2.4,0.3,3.5-0.4c1.2-1.2,0.8-2.7,1-4.2
	c0.3-2.2-0.5-4.4,0.2-6.6c1.3,0.2,0.8,1.2,0.9,1.9c0.1,0.9,0,1.9,0.3,2.9c0.8-3.1,1.6-6.3,2.6-9.4
	C221.2,103.7,223.2,102.9,225.5,104.5z"/>
<path class="st59" d="M85,151.7c0-0.5,0-0.9-0.1-1.4c2-1,3.9-2.1,6.2-1.4c0.2,0.1,0.4,0.2,0.6,0.3c0.8,0,1.4,0.4,1.8,1.1
	c0.7,0.6,1.5,0.7,2.3,0.8c0.6-0.2,1-0.1,1,0.7c-0.3,0.7-1,1-1.7,1c-2.7,0.1-5.4,0.1-8.2,0.1c-0.8,0-1.1-0.7-1.6-1.2
	C85.3,151.8,85.1,151.8,85,151.7z"/>
<path class="st60" d="M134.6,152.8c0.3-1.1,0.6-2.2,0.9-3.3c1.8-1.2,3.8-0.5,5.7-0.7c1-0.1,0.7,1,0.9,1.6c0.1,0.3,0.1,0.6,0.2,0.9
	c0,0.5-0.1,1-0.1,1.4c-1.7,0.5-3.4,0.2-5.1,0.2c-0.7,0-1.5-0.2-2.2,0.2C134.9,153,134.7,152.9,134.6,152.8z"/>
<path class="st61" d="M211.5,150.4c1.6,1.2,3.7,1.2,5.4,2.2c-0.2,0.5-0.5,0.6-1,0.5c-3.2-0.5-6.3-0.2-9.5,0
	c-0.2-0.1-0.3-0.2-0.5-0.4c0-0.8,0-1.6,0-2.3C207.8,149.3,209.7,149.4,211.5,150.4z"/>
<path class="st62" d="M168.6,152.2c0-0.3,0-0.6,0-0.9c0,0,0.1,0,0.1,0c2.2-2.1,5.6-1.6,6.2,0.9c0,0.2,0.1,0.3,0.1,0.5
	c-0.2,0.1-0.3,0.3-0.5,0.4c-1.5-0.8-3.5,0.8-4.8-1c0,0.8-0.3,1-1,0.6C168.7,152.6,168.7,152.4,168.6,152.2z"/>
<path class="st63" d="M85.4,151.8c3.8,1.6,7.6,1.2,11.4,0c0.3-0.3,0.6-0.2,0.9,0c0.3,0.4,0.6,0.7,0.9,1.1c-4.1,0.8-8.2,0.2-12.3,0.3
	C85.3,153.2,85.5,152.4,85.4,151.8z"/>
<path class="st64" d="M107.3,153.1c2.6-0.9,5.3-0.2,8-0.4c1-0.1,1.9,0,2.9,0c-1.8,1-3.8,0.3-5.7,0.4
	C110.7,153.3,109,153.2,107.3,153.1z"/>
<path class="st65" d="M206.5,153.1c3.2-0.3,6.3-1.1,9.5,0C212.8,153.1,209.7,153.1,206.5,153.1z"/>
<path class="st66" d="M217.4,152.7c2.9,0.3,5.8-0.7,8.6,0.4C223.1,153,220.2,153.7,217.4,152.7z"/>
<path class="st67" d="M186.9,152.7c-2.2,0.8-4.4,0.8-6.5,0c0,0,0.1,0,0.1,0C182.6,151,184.7,151.7,186.9,152.7L186.9,152.7z"/>
<path class="st67" d="M135,153.1c0.5-1,1.4-0.5,2.1-0.5c1.7,0.1,3.4,0.1,5.1,0.1C139.9,153.7,137.4,153.1,135,153.1z"/>
<path class="st68" d="M168.7,152.7c0.6-0.1,1-1.1,2-0.2c0.8,0.8,2.6-0.3,3.8,0.6C172.6,153,170.6,153.7,168.7,152.7z"/>
<path class="st64" d="M104,151.7c0,1.3,1.4,0.7,1.8,1.4c-1,0-2.1,0.3-3.1-0.3C103.2,152.5,103.3,151.8,104,151.7z"/>
<path class="st69" d="M237.5,96.9c-2.2-2-4.9-0.6-7.4-1.2c-1.4-0.3-2.8-0.3-4.1-1.1c-0.1-2.2,1.1-3.6,2.9-4.6c0.1,0,0.2,0,0.3-0.1
	c1,0.5,2,1,3,1.5c2.1,1.1,4,2.7,6.7,2.4c1.4-0.2,2.1,1,2.5,2.3c0.3,1.1-0.3,1.4-1.2,1.4C239.3,97.2,238.4,97.3,237.5,96.9z"/>
<path class="st70" d="M237.5,96.9c1.1-0.5,2-0.7,2.7,0.6c0,0.1-0.1,0.2-0.1,0.3c-0.8,0-1.6,0.1-2.4,0.1
	C237.3,97.7,237.4,97.3,237.5,96.9z"/>
<path class="st71" d="M72.2,34.3c-0.1,0.4-0.3,0.7,0.1,1c0.4,0.3,0.4,0.7,0.1,1c-0.4,0.4-0.7,0-0.9-0.3c-0.6-1.1-1.4-0.7-2.1-0.3
	c-1.3,0.8,0.1,1,0.3,1.5c0.3,0.7,0.4,1.5-0.3,1.9c-1,0.6-2,0.5-3-0.1c-1-0.6-0.7-5.9,0.3-6.4c0.4-0.2,1-0.1,1.5,0
	c0.6,0.1,1.1,0.5,1.6-0.1C71.1,32.5,71.7,33.2,72.2,34.3z"/>
<path class="st72" d="M72.2,34.3c-0.8-0.6-1.5-1.3-2.3-1.9c-0.2-0.1-0.5-0.3-0.5-0.4c-0.1-0.8,0.4-0.3,0.6-0.2
	c1.4,0.9,2.8,1.8,4,2.9c2.2,2,2.5,2,4.9,0.2c0.8,2.3-1.7,1.2-2.2,2.2c-0.8,0.4-1.5,0.4-2.3,0C73.6,36.1,73.2,34.9,72.2,34.3z"/>
<path class="st73" d="M74.4,37c0.8,0,1.5,0,2.3,0c0.3,0,0.6,0,0.9,0c-1.4,1-3.1,0-4.5,0.9c-0.6-0.2-1.2-0.1-1.8-0.3c0,0,0-0.2,0-0.2
	C72.3,36.6,73.4,37.3,74.4,37z"/>
<path class="st74" d="M71.3,37.6c0.6-0.1,1.3-0.3,1.8,0.3c-0.3,0.2-0.5,0.3-0.8,0.5C71.9,38.2,71.6,37.9,71.3,37.6z"/>
<path class="st75" d="M125.9,31.4c0.1-0.2,0.2-0.4,0.4-0.6c0.6-0.4,1.3-0.8,1.9-1.2c0.2,0.2,0.4,0.4,0.4,0.5
	c-0.2,3.4,1.4,6.6,1.6,9.9c-1.9,0.2-3.5-1-3.6-2.8c0-0.7,0.2-1.4-0.4-1.9C124.8,34.1,125.1,32.8,125.9,31.4z"/>
<path class="st76" d="M130,40.4c-1.2-3.5-1.5-7.1-1.8-10.7c0.1-0.1,0.3-0.1,0.4-0.2c1.1,1.6-0.2,3.6,0.9,5.3c0.8,1,0.7,2.3,1.2,3.5
	c0.5,1.2,1,1.2,1.7,0.3c0.5-0.6,0.8-1.3,1.7-1.5c0.3-0.2,0.6-0.3,0.9-0.5c0.6,1.7-1.1,2.4-1.5,3.7C131.5,42.1,130.9,42.1,130,40.4z"
	/>
<path class="st77" d="M20.4,106.3c0.3,0.2,0.6,0.3,0.9,0.5c-0.6,4.1,0.4,8.4-0.9,12.4c-3.6,0.4-3.8,0.3-3.8-3.3c0-0.8,0-1.5,0-2.3
	C16.4,110.3,15.9,107,20.4,106.3z"/>
<path class="st78" d="M20.3,119.3c0-2.5,0-4.9,0-7.4c0-1.8-0.1-3.5,0.9-5.1c0.4,0,0.8,0.1,1.2,0.1c0.5,4.1,0.9,8.3,1.4,12.4
	C22.7,119.3,21.5,119.3,20.3,119.3z"/>
<path class="st79" d="M31.7,148.9c1.6-0.5,2.7-2,4.4-2.1c1,1,1.1,2.3,0.8,3.6c-1.4,1.6-3.2,2.3-5.3,2c-0.7-0.5-0.3-1.3-0.6-1.9
	C31.3,149.9,31.5,149.4,31.7,148.9z"/>
<path class="st35" d="M36.3,146.2c-0.6-3.9-1.2-7.8-1.9-11.6c-1.4-6.2-2.7-12.4-4.1-18.6c-0.6-2.7-1.3-5.4-1.9-8.1
	c-0.7-3.1-3-4.7-5.9-4.3c0.1-4.4,0.1-8.8,0.2-13.2c0.1,0,0.2,0,0.2,0c0.7-2.2,0.3-4.5,0.4-6.7c0-1.9,0.1-3.8,0.2-5.7
	c0.5-2.2,0.8-4.6,2.6-6.3c0,0,0.2,0.1,0.2,0.1c0.3,0.3,0.6,0.6,0.9,0.9c-0.1,0.2-0.2,0.4-0.3,0.6c-1.9,4-1.4,4.8,2.7,4.7
	c0.4,0,0.7,0,1.1,0c0.5,0.3,0.7,0.8,0.8,1.4c0,1-0.4,1.9-0.7,2.8c-0.6,1-0.8,2.2-0.9,3.4c-0.2,0.7-0.3,1.5-0.9,1.9
	c-1.8,1.2-0.9,2.2,0.2,3.3c0.1,0.2,0.1,0.4,0.1,0.6c-0.4,0.8-0.7,1.7-0.3,2.6c0.2,1,0.3,2.1,0.9,3c2.3,3.3,5,5.5,9.2,5.1
	c0.6-0.1,1.2,0,1.8,0.2c0.2,0.1,0.4,0.3,0.4,0.5c-0.1,6.1-0.1,12.3-0.2,18.4c0,2,0.4,3.8,1,5.7c1.3,4,1,8.3,1.1,12.4
	c0,1.2,0,2.5-0.1,3.7c-0.4,1.5,0.2,3.2-0.6,4.6c-0.5,0.7-0.3,1.6-0.8,2.3c-0.1,0.2-0.2,0.4-0.4,0.6c-0.5,0.4-1.1,0.5-1.7,0.5
	c-1.6,0.1-3-0.1-3-2.4C36.7,147.8,36.6,147,36.3,146.2z"/>
<path class="st80" d="M39.4,69.5c0,0.6-0.5,0.8-1,0.8c-0.1,0-0.2,0-0.3,0c-0.8,0.4-1.2,1.3-1.8,2c-0.9,0.8-1.1,2-1.5,3.1
	c-0.2,0.5-0.3,1-0.4,1.5c-0.1,0.3-0.2,0.6-0.3,0.8c-0.5,0.6-0.9,1.2-0.9,2.1c-0.1,0.4-0.4,0.7-0.9,0.8c-0.9-0.4-0.6-1.4-1-2
	c-0.2-0.8,0.5-1.2,0.6-1.9c0.4-0.8,0.5-1.7,1-2.4c-0.1-0.7,0.2-1.3,0.5-1.8c0.5-1.3,1-2.6,2.3-3.3C37.1,68.8,38.3,68.4,39.4,69.5z"
	/>
<path class="st81" d="M32.2,76.8c-0.2,0.6-0.3,1.3-0.5,1.9c0.1,0.5-0.1,0.6-0.6,0.5c-0.5-0.2-0.3-0.8-0.4-1.2
	c0.5-0.6,0.9-1.1,1.4-1.7c0.1,0.1,0.2,0.2,0.2,0.3C32.3,76.8,32.2,76.8,32.2,76.8z"/>
<path class="st82" d="M32.2,76.8c0-0.1,0-0.3-0.1-0.4c0-0.8,0.2-1.5,0.9-2C33,75.3,32.7,76.1,32.2,76.8z"/>
<path class="st83" d="M228.9,90c-1.2,1.4-2.2,2.9-2.9,4.6c-0.3,0.1-0.6,0.1-0.9,0.2c0-3.6,0-7.3,0-10.9c0.6,1.5,1.2,3,1.6,4.6
	C227.1,89.7,227.8,90.1,228.9,90z"/>
<path class="st84" d="M29,59.7c-0.2-0.1-0.3-0.1-0.5-0.2c-1-1.7-0.2-3,0.9-4.2c1.1,0.5,0.6,1.8,1.2,2.6c0.1,1-0.3,1.5-1.2,1.6
	C29.3,59.6,29.1,59.6,29,59.7z"/>
<path class="st85" d="M29.4,59.5c0.5-0.5,1.1-1,0.9-1.9c0.2-0.1,0.4-0.1,0.6,0c1.6,1.5,2.2,1.5,2.9,0.1c0.3-0.5,0.2-1.7,1-1.3
	c0.8,0.4,0.7,1.4,0.1,2.2c0,0.3,0,0.6,0,0.9C33.1,60.2,31.2,60.3,29.4,59.5z"/>
<path class="st86" d="M36.2,63.3c0,0.9,0,1.8,0,2.7c-0.1,0-0.2,0.1-0.4,0.1c-0.2-0.2-0.3-0.4-0.5-0.6C35.6,64.8,35.9,64.1,36.2,63.3
	z"/>
<path class="st87" d="M36.3,146.2c0.2,0.5,0.5,0.9,0.6,1.4c0.9,3.1,1.6,3.4,4.8,2.3c0.4,1.9-0.3,3-2.2,3.2c-2.3,0-4.6,0-6.8,0
	c0-1.2,1.2-1.1,1.8-1.4c0.8-0.4,1.7-0.7,2.2-1.4c-0.2-1.2-0.4-2.4-0.5-3.6C36.2,146.5,36.2,146.4,36.3,146.2z"/>
<path class="st88" d="M42.2,152.7c6.8,0,13.6,0,20.4,0c0.8,0.1,1.6,0.1,2.3-0.4c0,0.3,0,0.6,0,0.9c-7,0-13.9,0-20.9,0
	C43.4,153.2,42.6,153.4,42.2,152.7z"/>
<path class="st89" d="M36.6,150.3c0,1.3-1.1,1.2-1.9,1.6c-0.7,0.4-1.4,0.8-2.1,1.2c-0.5,0-1.4,0.4-0.9-0.8
	C33.3,151.5,35.1,151.3,36.6,150.3z"/>
<path class="st90" d="M71.2,150.5c0.9,0.8,1.8,1.6,2.8,2.3c-0.2,0.1-0.3,0.3-0.5,0.4c-0.6,0-1.3,0-1.9-0.1
	C71.3,152.3,71.2,151.4,71.2,150.5z"/>
<path class="st89" d="M39.4,153.1c1.5-0.5,2.1-1.7,2.2-3.2c0-0.2,0-0.3,0-0.5c0.2-0.2,0.4-0.2,0.5,0c-0.1,0.9-0.1,1.8-0.2,2.8
	C41.5,153.5,40.4,153.2,39.4,153.1z"/>
<path class="st84" d="M34.9,58.6c0-0.6,0-1.2,0-1.8c-0.5,1.3-0.2,3.1-2.6,2.8c-1.4-0.2-1.6-0.8-1.6-1.9c-0.7-1-1.1-2-0.9-3.3
	c3-2.3,5.4-0.5,6.9,2.1c0.4,0.7,0.7,1.6,0.2,2.2C36.5,59.1,35.6,59.1,34.9,58.6z"/>
<path class="st91" d="M29.9,54.4c0.3,1.1,0.6,2.2,0.9,3.3c0,0-0.2,0-0.2,0s-0.2,0-0.2,0c-1.2-0.4-0.2-1.7-0.9-2.3
	C29.4,54.9,29.5,54.6,29.9,54.4z"/>
<path class="st92" d="M130,40.4c1.4,1.9,2.2,0.3,3.2-0.5c0.9-0.5,1.6-1.3,2.6-1.4c2-0.4,0.9-3.2,2.4-3.5c1.9-0.4,2.3-1.6,2.4-3.2
	c0-0.3,0.2-0.6,0.4-0.8c5.7,0.6,8.2,4.4,9.3,9.7c0.2,1.2,0.7,2.3,1.1,3.5c1.1,1.4,1.1,3.2,1.3,4.9c-0.4,1.7,0.3,3.2,0.3,4.8
	c0,3.2-0.1,6.4-0.6,9.5c-0.5,1.6-1.8,1.5-3.1,1.5c-0.9,0-1.8,0-2.8-0.2c-0.9-0.4-2-0.2-2.9-0.8c-0.3-2.1-0.5-4.3-0.9-6.4
	c0.2-0.6,0.6-0.9,1.1-1.2c0.4-0.2,0.7-0.4,1-0.6c1.2-0.3,0.1-1,0.3-1.5c-0.2-0.7-0.4-1.4-0.7-2.1c-0.5-0.8-0.4-1.8-1.1-2.5
	c-1,0.1-1.2,1.4-2.3,1.3c-1.6-0.9-1.8-2.9-3-4.1c-0.9-0.8-1.7-0.1-2.4,0.3c-2.2,1.2-4.3,2.5-6.4,3.8c-0.7,0.4-1.3,0.8-2.1,1.2
	c-0.2,0.1-0.3,0.2-0.5,0.3c-0.3,0.2-0.7,0.3-0.9,0.6c-0.2,0.2-0.4,0.4-0.6,0.6c-0.9,1.1,0.2,1.8,0.4,2.8c0.1,0.2,0.1,0.4,0.1,0.6
	c-0.6,1.9,0.4,2.8,2,3.4c0.8,0.6,1.1,1.6,1.7,2.4c1.4,2.3,2.8,4.7,4,7.1c0.9,1.8,1.9,3.3,4.2,3c0.9,1.7,2.6,3.2,1.3,5.5
	c-4.4,1.4-8.9,1.8-13.5,0.6c-2.6-0.3-5.1-0.9-7.4-2.2c-0.9-2.2,0-4.4,0.2-6.6c0.3-3.3,0.3-6.6,0.3-9.9c0.5-4.2,0.6-8.5,0.4-13.3
	c-1.4,2-1.3,4-2.6,5.3c0.3-2.8,0.6-5.6,0.9-8.5c0.6-1.2,0.9-2.4,0.9-3.8c0.1-4.1,1.2-5.5,5.1-7.1c0.9-0.4,1.8-0.9,2.7-1.3
	c0.2,1.4-1,3.4,1.4,3.9c0.1,0,0.2,0.4,0.2,0.6C125.9,38.8,128.8,39.1,130,40.4z"/>
<path class="st93" d="M26.1,71.7c-0.9,2-1.7,4-2.2,6.1c0.1,0.9-0.4,0.9-1,0.9c-0.1,0-0.2,0-0.4,0.1C22.9,75,22.9,72.8,26.1,71.7z"/>
<path class="st93" d="M22.6,79.7c0,1.2,0.1,2.4-0.9,3.3C22,81.9,20.9,80.4,22.6,79.7z"/>
<path class="st94" d="M23,78.7c0.3-0.3,0.7-0.6,1-0.9c-0.6,4.2-0.2,8.4-0.6,12.6c0,0-0.1,0.1-0.2,0.1c-0.1,0-0.1-0.1-0.2-0.1
	C23,86.5,23,82.6,23,78.7z"/>
<path class="st95" d="M79.5,82.9c-0.7,0.2-1.3-0.1-1.9-0.4c-2.4,1.1-4.8,1.5-7.3,0.4c-1.7-0.5-3.5-0.6-5.2-1.2
	c-1.2-0.4-1.8,0-1.9,1.3c0,0.7,0.1,1.6-1,1.7c0-1.1,0-2.3,0-3.4c0.1-1.1-0.4-1.7-1.4-2c-1.4-0.8-2.8-1.7-4.3-2.5
	c-0.7-0.4-0.8-0.8-0.7-1.5c0.1,0,0.3,0,0.4,0c0,0,0,0,0,0c0.9,0.6,1.6,0.1,2.3-0.3c1.1-0.6,2.4-0.9,3.4-1.5l0.2,0
	c0.3-0.2,0.6-0.3,0.9-0.2c1.1,0.6,2.2,1.3,3.3,1.8c0.6,0.4,1.3,0.7,1.9,1c1.7,1.2,3.5,2.1,5.7,1.2c1.1-0.4,2.2-0.1,3.2,0.5
	c0.8,0.6,1.6,1.3,1.6,2.5C78.1,81.5,79.6,82,79.5,82.9z"/>
<path class="st96" d="M62.2,84.8c0.4-0.3,0.4-0.8,0.4-1.2c0.2-3.2,0.3-3.3,3.3-2.2c1.5,0.6,3.1,0.2,4.5,1.1c0.6,2.7-0.3,5.3-0.5,7.9
	c-2.6,0-4.9-1.2-7.3-1.8C61.8,87.4,62.1,86.1,62.2,84.8z"/>
<path class="st35" d="M175,152.2c-1-1.6-3.4-1.9-6.2-0.9c-2.1-5.9-1.9-12.1-2.2-18.2c-0.4-8-0.4-16-0.6-24c-0.1-5,0.7-9.9,1.5-14.8
	c0.2-0.4,0.1-0.8,0.3-1.2c0.5-0.7,1.2-0.6,1.8-0.2c1.4,0.8,2.4,0.4,3.1-0.9c0.7-0.3,1.5-0.3,2.2-0.1c1.1,0.3,2,0,2.8-0.9
	c1.6-1.7,3.7-1.3,5.7-1.3c0.8,0,0.9,0.6,0.6,1.3c-0.1,0.7-0.7,1.2-0.5,2.1c1.4,0.6,2.9-1.6,4.3,0.1c1.4,3.6,1.6,7.5,2,11.3
	c0.1,4.8,0.1,9.6,0,14.4c0,0.7,0,1.4,0,2.2c0,1.1,0.1,2.3-0.6,3.3c-0.6,7.2-0.4,14.4-1.3,21.6c-0.2,1.8-0.4,3.5-1.3,5.1
	c-1.9,1.2-3.9,0.7-5.9,0.5c-1.4-3-1.2-6.3-1.3-9.4c-0.2-4.7-0.3-9.4-0.2-14c0.1-5-0.4-10-0.9-14.9c-0.2-0.4-0.3-0.8-0.4-1.2
	c0-0.1,0-0.3,0-0.4c-0.1,0,0,0.1,0,0.1c0,0.4-0.1,0.8-0.4,1.1c-0.8,8.6-0.4,17.3-0.9,25.9C176.2,143,175.7,147.6,175,152.2z"/>
<path class="st97" d="M167.2,68.5c-0.9-1.4-2-2.6-2.3-4.3c-0.3-0.9-0.2-1.7,0.2-2.5c0.3-0.5,0.6-1.1,0.7-1.7
	c1.2-1.4,3.1-1.2,4.6-1.9c0.7-0.6,1.4-1.1,2.3-1.2c1.1,0.2,1.7,1,2.2,2c0.1,0.2,0.1,0.4,0.1,0.7c-0.2,1.6-0.1,3.2,0.4,4.8
	c0,1.8-0.9,3.3-1.7,4.8c-1,1.6-2.5,2.7-4.2,3.4c-1.5,0.6-1.8-0.4-1.9-1.6C167.5,70.2,167.9,69.3,167.2,68.5z"/>
<path class="st98" d="M172.4,92.3c0.5,1.7-0.5,1.8-1.7,1.5c-1-0.2-1.8-1.2-2.9-0.7c-2.8-2.1-4.3-5.3-6.2-8.1
	c-2.3-3.2-1.1-6.4-0.1-9.6c0.2-0.2,0.3-0.3,0.5-0.5c0.3-0.3,0.6-0.3,0.9,0c0.6,1.4-0.2,2.6-0.6,3.8c-0.7,2.3-0.1,4.3,1,6.2
	c1.1,2,2.7,3.7,3.9,5.7c0.5,0.9,1.6,0.9,2.3,1.3c-1.1-0.6-2.8-0.7-2.4-2.7c0.1-0.2,0.3-0.3,0.5-0.4c0.6,0.1,1,0.5,1.5,0.7
	C170.4,90.2,172.3,90.1,172.4,92.3z"/>
<path class="st99" d="M172.4,45.6c0.6-0.2,1-0.5,1.3-1c0.6-0.1,1.2-0.3,1.8-0.4c0.3,0.1,0.6,0.2,0.5,0.7c-0.6,1.1-3.1,0.7-2.2,3
	c0.1,0.5,0.2,0.9,0.3,1.3c0.4,2.5-0.1,3.2-2.6,3.7c-0.4,0-0.7-0.1-1-0.4c0-1.1,0-2.1-0.1-3.2C171.1,48,171.8,46.8,172.4,45.6z"/>
<path class="st100" d="M164.2,70.3c0.1,0,0.3,0,0.4,0c0.4,2-0.3,3.5-1.8,4.7c-0.3,0-0.5,0-0.8,0C162.1,73.1,163.5,71.9,164.2,70.3z"
	/>
<path class="st101" d="M165.6,61.4c-0.2,0-0.4,0-0.6-0.1c0.1-0.6,0.3-1.1,0.9-1.3C166.3,60.6,166.3,61.1,165.6,61.4z"/>
<path class="st102" d="M203.3,92.8c0-3.3-0.1-6.5-0.1-9.8c0.3-2.3,0.7-4.6,1-6.9c0.5-3.1,2-5.1,5.3-5.4c0.1,0,0.2,0.1,0.3,0.1
	c1.8,2.3,3.3,4.7,2.5,7.8c-1.4,0.3-1.3,1.4-1.3,2.5c-1.5,3.3-1.5,7.1-3.1,10.3c0,0.6-0.1,1.2-0.1,1.8
	C206.2,93.9,204.7,93.6,203.3,92.8z"/>
<path class="st103" d="M220.5,59.1c0.1,0.4-0.1,0.7-0.4,1c-0.3,0.3-0.5,0.7-0.7,1c-0.6,1.5-0.1,3.1-0.8,4.6c-0.3,0.7-0.9,1-1.6,1
	c-1-0.6-2.1-1.1-3.2,0c-1,0-1.5-0.8-1.9-1.6c-0.2-0.7-0.3-1.5-0.5-2.2c0.4-1.1-0.6-2.3-0.1-3.4c0.7-0.5,1.3-0.1,2,0.1
	c1,0.4,2.1,0.3,3.2,0.3c0.7,0,1.2-0.4,1.7-0.6C219,59,219.8,58.7,220.5,59.1z"/>
<path class="st104" d="M186.9,63.3c1.7,1.2,2.7,2.9,2.8,5.1c-0.8,1.9-2.2,2.9-4.2,3c-0.8-0.7-1.2-1.7-1.7-2.6
	c-0.2-0.7-0.2-1.4-0.2-2.2c0-0.5,0.1-1,0.2-1.5c0.3-0.8,0.2-1.7,0.8-2.5C185.5,62,186.1,62.9,186.9,63.3z"/>
<path class="st105" d="M175,64.2c-0.8-1.5-0.8-3.1-0.4-4.7c0.7-0.3,1,0.5,1.5,0.7c1.2,0.6,2.1,0.5,2.4-1.1c-0.3-1.9,1.2-3.4,1.1-5.4
	c0-0.7,1-1,1.8-0.4c0,0.2,0.1,0.3,0.1,0.5c0,0.3-0.1,0.6-0.1,0.9c0.3,2.6-1.2,5-0.5,7.6C179.9,65.2,177.7,65.9,175,64.2z"/>
<path class="st106" d="M218.7,70.3c-0.3,0.5-0.6,0.9-0.8,1.4c-0.8,1.6-2.1,1.6-3.4,1.1c-1.2-0.4-2.6-0.7-2.2-2.6
	c0.1-1,0.1-2.1,0.2-3.1c0.6-0.7,1.2,0,1.8,0.1c1.3,1,2.3-0.1,3.4-0.5c0.3-0.1,0.6-0.1,0.9,0C218.6,67.9,218.6,69.1,218.7,70.3z"/>
<path class="st107" d="M212.2,70.2c1.2,2.3,3,2.8,5.6,1.5c0.2,0,0.3,0,0.5,0c0,1.6-1.1,1.8-2.3,1.9c-1.3,0.2-2.5-0.1-3.7-0.7
	c-1.1-0.5-1.6-1.8-2.7-2.2c-0.1-0.1-0.1-0.1-0.2-0.2C210.3,69.9,211.3,70.5,212.2,70.2z"/>
<path class="st108" d="M185.6,71.1c1.6-0.5,2.9-1.7,4.1-2.8c0.4,0.7,0.9,1.3,1.3,2c0,0.3,0,0.6,0,0.9c-2.6-0.9-2.9-0.7-4.7,2.5
	c-0.2,0-0.5,0-0.6-0.2C185.2,72.7,184.8,72,185.6,71.1z"/>
<path class="st109" d="M211.4,59.6c0.8,1.1,0.7,2.1,0.1,3.3c-0.6-0.8-0.7-1.9-1-2.9c0.1-0.1,0.1-0.3,0.1-0.4
	C210.9,59.3,211.1,59.3,211.4,59.6z"/>
<path class="st110" d="M214.2,67.6c-0.6-0.2-1.1-0.4-1.7-0.5c-0.4-0.6-0.7-1.2-0.5-2c0.6,0.4,1.2,0.9,1.8,1.3
	C214.1,66.7,214.5,67.1,214.2,67.6z"/>
<path class="st111" d="M181.4,53.4c-1.1,0-1.9,0.2-1.5,1.7c0.2,0.7,0.9,1.9-0.8,2.3c-0.7,0.2,0.3,1.3,0,2c-1.7,1.8-3.1,0.8-4.5-0.5
	c-0.6-0.6-1.2-1.2-1.8-1.9c0.1-0.3,0.3-0.6,0.4-0.9c-0.4-0.8-0.4-1.7-0.7-2.5c-0.1-0.4,0-0.8,0.4-1c1.7-0.7,3.6-0.2,5.3-0.4
	c0.6,0,1.2-0.1,1.8-0.2c0.6,0,1.3-0.1,1.4,0.8C181.4,53.1,181.4,53.3,181.4,53.4z"/>
<path class="st112" d="M178.7,44.5c2.9,1.2,4.6,3.9,4.3,6.9c0,0.3-0.3,0.5-0.6,0.6c-0.9-0.2-1.9,0.5-2.8,0c-0.8-1.3-0.4-2.7-0.5-4
	c0.4-1-0.1-2-0.5-2.9C178.5,44.9,178.6,44.7,178.7,44.5z"/>
<path class="st113" d="M178.7,44.5c0,0.2,0,0.3,0,0.5c-1.1,0.8-2,0.7-2.7-0.5c-0.1-0.1-0.3-0.3-0.4-0.4
	C176.6,43.9,177.7,43.8,178.7,44.5z"/>
<path class="st113" d="M180,52c0.8-0.8,1.5-0.4,2.3,0c-0.3,0.3-0.6,0.6-0.8,0.9c-0.4-0.5-0.9-0.4-1.4-0.5c-0.1-0.1-0.1-0.2-0.1-0.3
	C180,52.1,180,52,180,52z"/>
<path class="st44" d="M86.4,92.3c-0.1,1,0,2,0.3,2.9c1.1,1-0.1,2.2,0.4,3.3c-2,4.3-3.8,8.6-6.4,12.6c-0.8,1.1-1.5,2.3-2.2,3.5
	c-0.3,0.6-0.6,1.5-1.4,1.2c-1-0.4-0.5-1.3-0.4-2c0.9-6.2,1.6-12.4,2.4-18.7c0-0.8-0.1-1.7,0.3-2.5c0.3-0.7,0.1-1.2-0.7-1.3
	c-0.1-0.2-0.1-0.4,0-0.6c0.3-0.4,0.7-0.6,1.2-0.7c1.4-0.4,2.9-0.9,4.3-1.4c0.7-0.3,1.4-0.6,2.1,0C86.5,89.8,87,91,86.4,92.3z"/>
<path class="st114" d="M79,95.1c0.4,2.7-0.3,5.2-0.6,7.9c-0.5,4.1-1.1,8.3-1.4,12.5c1.4-1.5,2-3.5,3.4-4.9c0.1,0.2,0.4,0.4,0.3,0.6
	c-0.9,3.2-2,6.3-4.3,8.7c-0.1-0.1-0.1-0.3-0.1-0.4c-0.3-0.4-0.4-0.9-0.1-1.3c-0.8-1.3,0-2.6,0.1-3.9c0.7-6.1,1.5-12.3,2.3-18.4
	C78.6,95.6,78.9,95.4,79,95.1z"/>
<path class="st115" d="M78.6,90.9c0,0.1,0,0.3,0,0.4c-2.1,0-4.3,0-6.4,0c0-0.2,0-0.3,0-0.5C74.3,89.9,76.4,89.9,78.6,90.9z"/>
<path class="st116" d="M43.1,102.2c-0.5,0.6-1.1,0.7-1.8,0.5c0,0-0.1-0.1-0.1-0.1c0.3-1.2,1-1,1.7-0.6
	C43,102.1,43.1,102.2,43.1,102.2z"/>
<path class="st87" d="M42.2,149.5c-0.2,0-0.3,0-0.5,0c0.2-0.7,0.2-1.6,0.5-2.2c0.2-0.4,0.3,0.2,0.4,0.4
	C42.7,148.3,42.8,148.9,42.2,149.5z"/>
<path class="st117" d="M43,102c-0.6,0.1-1.3,0-1.7,0.6c-4.5,0.5-8.4-0.4-11.2-4.4c-0.3-0.4-0.4-0.8-0.6-1.2
	c-0.3-0.7-0.5-1.3-0.3-2.1c0.1-0.2,0.3-0.3,0.5-0.4c0.9,0.3,1.2,1.2,1.7,1.9c-0.5,1.1,1,1,1.1,1.8c0.4,0.8,1.1,1.4,1.9,1.7
	c1,0.8,1.9,1.6,3.2,1.7c0.7,0.1,0.3-0.4,0.5-0.6c0.7-0.6,1.8-0.4,2.4-1.1c0.2-0.1,0.4-0.2,0.6-0.3c0.2,0,0.4,0.1,0.5,0.3
	c-0.8,1.8,0.9,1,1.4,1.5c0.1,0.1,0.1,0.2,0.2,0.3C43.1,101.8,43,101.9,43,102z"/>
<path class="st118" d="M45.4,99.3c-0.3,1.3-1,2.1-2.3,2.4c0,0-0.2-0.1-0.2-0.1c0-0.2,0-0.5,0.1-0.6c1.1-0.4,0-0.5-0.1-0.8
	c-0.1-0.2,0-0.4,0-0.6c0.4-0.5,0.8-1.2,1.5-1.4C45.1,98.3,45.3,98.8,45.4,99.3z"/>
<path class="st119" d="M45.8,91.3c0.3,0,0.6,0,0.9,0c0,0.2,0,0.3,0,0.5c-0.3,0.3-0.2,0.7-0.4,1c-0.1,0.1-0.3,0.2-0.5,0.3
	c-0.4,0.1-0.7,0.3-1.1,0.4c-0.6,0.1-1.1-0.1-1.6-0.5c-0.1-0.1-0.1-0.2-0.2-0.3C43.7,91.7,45.5,93.2,45.8,91.3z"/>
<path class="st120" d="M46.2,92.8c0-0.4,0.1-0.8,0.5-1c0,1.3,0.6,2.5,0,3.8c-0.3,0.1-0.5,0.1-0.7-0.2C45.5,94.5,45.6,93.6,46.2,92.8
	z"/>
<path class="st121" d="M45.4,99.3c-0.3-0.3-0.7-0.6-1-0.9c-0.1-0.2-0.1-0.4-0.1-0.6c0.2-0.4,0.5-0.7,0.9-0.9c0.2-0.1,0.4,0,0.6,0.1
	c0.4,0.5,0.4,1,0,1.5C45.8,98.8,45.7,99.2,45.4,99.3z"/>
<path class="st122" d="M45.8,98.5c0-0.5,0.1-1.1-0.5-1.5c-0.3-0.5-0.2-0.9,0.4-1c0.4,0.1,0.6,0.4,0.7,0.7c0,0.6,0.2,1.2-0.2,1.7
	C46.1,98.4,46,98.5,45.8,98.5z"/>
<path class="st123" d="M46.3,98.4c0-0.6,0-1.3,0-1.9c-0.2-0.3-0.3-0.6,0.1-0.9c0.1,0,0.3,0,0.4,0C46.6,96.5,47,97.6,46.3,98.4z"/>
<path class="st124" d="M85.7,88.7c-2.1,0.6-4,1.8-6.3,1.8c-2.7,0.3-5.5,0.3-8.2,0c-0.4,0-0.9-0.1-1.3-0.1c-0.9-2.7,0-5.3,0.5-7.9
	c2,0.4,4.1,1.1,6.1-0.2c0.4-0.3,0.9,0.1,1.2,0.3c-0.1,0.3-0.3,0.6-0.4,0.9c-1.2,0.9-2.7,1-4.1,0.9c-2.6-0.2-1.7,2.1-2.1,3.3
	c-0.5,1.5,0.7,1.8,1.9,1.8c1.8,0,3.7,0.4,5.4-0.1c2.4-0.7,4.9-1.1,7.1-2.6l0,0c0.3-0.1,0.5-0.1,0.7,0.2
	C86.3,87.5,86.4,88.2,85.7,88.7z"/>
<path class="st125" d="M71.2,90.5c2.7,0,5.5,0,8.2,0c-0.3,0.2-0.6,0.3-0.9,0.5c-2.1,0-4.2,0-6.4,0C71.9,90.8,71.5,90.6,71.2,90.5z"
	/>
<path class="st126" d="M28.8,91c-0.4-0.3-0.8-0.7-1.2-1c-1.2-0.7-0.9-1.6,0-2.1c1-0.5,1.3-1.4,1.7-2.2c0.6,0.4,0.7,1.3,1.4,1.6
	c0.4,0.3,0.8,0.6,1.3,0.6c0.3,0,0.6,0,0.9,0c1.6,0,3.2,0,4.8-0.4c0.9-0.1,1.8-0.5,2.8-0.2c0.3,0,0.4,0.1,0.6,0.3
	c0.3,1.7,1.4,3.2,0.9,5c-0.3,0.5-0.8,0.6-1.3,0.6c-2.7-0.3-5.4-0.7-8-1.3c-0.2,0-0.4-0.1-0.6-0.1c-0.5-0.2-0.9-0.3-1.4-0.3
	c-0.2,0-0.3-0.1-0.5-0.2c-0.1-0.3-0.3-0.5-0.7-0.2C29.3,91.3,29,91.1,28.8,91z"/>
<path class="st127" d="M38.1,88c-1.8,0.7-3.7,0.6-5.6,0.5C32,87.9,32,87.2,32,86.4c0-0.5,0.1-1,0.2-1.4c0.1-0.4,0.3-0.9,0.3-1.4
	c0-0.7,0-1.4,0.3-2c0.9-1.1,0.8-2.5,1.4-3.7c0.3-0.7,0.5-1.5,0.7-2.2c0.1-0.6,0.1-1.2,0.8-1.4c0.2,0,0.5,0,0.6,0.2
	c-0.2,1.7-1.4,3.5,0.8,4.8c0.5,1.2,0.3,2.4,0.1,3.6c0,0.3,0,0.6,0,1C37.5,85.3,38.6,86.4,38.1,88z"/>
<path class="st128" d="M38.1,88c-0.4-1.3-1-2.7-0.8-4.1c0.9,1.3,1.1-0.2,1.5-0.5c0.4-0.2,0.6-0.8,1.1-0.6c0.5,0.2,0.4,0.7,0.5,1.2
	c0.1,1.1-0.3,2.2,0.4,3.2c0.1,0.1,0.2,0.2,0.2,0.3c0,0.1-0.1,0.1-0.1,0.1C39.8,87.6,39,88.3,38.1,88z"/>
<path class="st129" d="M36.3,74.5c-0.2,0-0.3,0-0.5,0c-0.6-0.9,0.1-1.6,0.4-2.3c0.2-1.1,0.7-1.9,1.9-1.8
	C37.5,71.8,36.9,73.1,36.3,74.5z"/>
<path class="st130" d="M40.7,87.6c0-0.1,0-0.3,0-0.4c0-0.9,0.1-1.8,0.1-2.7c0.2,1.1,1.6,2,0.3,3.2C41,87.7,40.9,87.7,40.7,87.6z"/>
<path class="st131" d="M37.2,82.9c0-1.2-0.1-2.4-0.1-3.6C38,80.5,37.7,81.7,37.2,82.9z"/>
<path class="st35" d="M76.4,119.9c1.2-3.2,3.4-5.9,4-9.3c1.8-2.8,3.1-5.8,4.6-8.8c0.5-1,0.7-2.2,1.7-2.9c0.4,0.2,0.5,0.6,0.6,1
	c0.3,1.8-0.1,3.7,0.3,5.5c0.1,0.6,0,1.1-0.4,1.5c0,0.3,0,0.6,0,0.9c0.5,0.7,0.6,1.5,0.6,2.3c0,1.2-0.1,2.3,0.3,3.5
	c0.3,2.5-0.1,5,0.2,7.5c-0.1,1.2-0.9,2.4-0.2,3.6c0.1,0.2,0.2,0.4,0.4,0.6c0.5,0.5,0.3,1.1,0.1,1.7c0.3,4.5,0.7,8.9,1.7,13.3
	c0.5,0.3,0.6,0.8,0.6,1.3c0.1,0.9,0.6,1.9,0,2.8c-0.1,0.5,0,1,0.3,1.5c0.3,0.3,0.3,0.6,0.1,0.9c-0.1,0.8-0.1,1.6-0.2,2.3
	c-2.1,0.2-4,1.5-6.2,1.4c-0.9-0.5-1.2-1.4-1.5-2.2C80,139,77.1,129.8,76.4,119.9z"/>
<path class="st132" d="M88,121.4c0.1,0.5,0.1,0.9,0.2,1.4c0,0.6,0,1.2-0.1,1.9C87.4,123.6,87.6,122.5,88,121.4z"/>
<path class="st133" d="M118.7,151.4c-0.1,0.3-0.1,0.6-0.2,0.9c-1.8-0.6,0-1.2,0-1.8C118.6,150.8,118.6,151.1,118.7,151.4z"/>
<path class="st35" d="M131.7,126.5c-0.6-4.7-1.2-9.4-1.8-14.1c-0.8-3-0.9-6.1-1.3-9.1c-0.9-6.4-1.6-12.8-2.5-19.3
	c-0.2-1.8-0.5-3.5-0.8-5.3c4.6,0,9.2,0,13.7-1c1.9-1.3,4.1-1.9,6.4-1.8c0.6,2.9,0.3,5.9,0.4,8.9c-0.6,3.1-0.4,6.2-0.5,9.3
	c-0.1,0.8-0.3,1.5-0.3,2.3c0.2,9.8-0.5,19.5-0.9,29.2c-0.5,7-1,13.9-1.5,20.9c-0.1,1.3-0.4,2.6-0.5,3.9c-0.5-0.4-0.4-1.2-1.4-1
	c-1.7,0.3-3.5,0.1-5.2,0.1c-1.5-1.6-1-3.7-1.3-5.5C133.3,138.2,132.5,132.3,131.7,126.5z"/>
<path class="st134" d="M94,71.3c0,0.3,0,0.6,0.1,0.9c-2.1,1.9-4,0.3-5.9-0.5c-0.8-1.3-2.3-2.2-2.8-3.8c-0.4-0.5-0.5-1.1-0.5-1.8
	c0.3-1-0.6-2.7,0.5-3c1.3-0.4,1.9,1.3,2.4,2.3c0.7,1.4,1.3,2.8,1.8,4.2C90.3,71.7,92.3,71.2,94,71.3z"/>
<path class="st1" d="M85.4,86.7c0.2,2.1-1.8,1.4-2.7,1.9c-3.2,1.9-6.9,1.2-10.4,1.4c-1.8,0.1-2.4-0.6-1.9-2.4
	c0.1-0.4,0.1-0.8,0.1-1.2c0.2-2.1,0.5-3.9,3.4-2.7c0.9,0.4,2.2-0.5,3.3-0.4c0.9,0.1,1.8-0.1,2.7,0.3c2.5,1.1,3.2,0.7,3.9-2.2
	c0.6,1.4,0.8,2.8,0.7,4.2C84.5,86.3,84.3,87.1,85.4,86.7z"/>
<path class="st135" d="M88,71.2c2,0.6,3.8,1.7,6,0.9c0,0.3,0,0.6,0,0.9c-1.5,2-3,4.1-4.5,6.1c-1.3,1-2.6,2.1-3.4,3.7
	c-0.8,1.2-0.1,2.5-0.4,3.8c0,0-0.2,0-0.2,0s-0.2,0-0.2,0c-0.1-3.6,0.2-7.2-0.4-10.8C86.1,74.3,86.2,72.2,88,71.2z"/>
<path class="st136" d="M63.1,73.7c-0.3,0-0.6-0.1-0.9-0.1c-0.4-1.2-0.1-2.2,0.9-3c1.6-0.8,3.1-0.3,4.6,0.6c3.5,0.6,7,1.3,10.5,1.9
	c0.7,0.1,1.4,0.4,2.2,0.6c0,0.5-0.3,0.7-0.7,0.8c-2.5,0.7-4.8-0.7-7.2-0.9c-1-0.3-2-0.6-3.1-0.7c-0.7-0.1-1.3-0.1-2-0.3
	c-0.9-0.3-1.8-0.5-2.7-0.7c-0.3,0-0.6,0-0.8,0C63,72.3,63.5,73.2,63.1,73.7z"/>
<path class="st137" d="M67.6,71.2c-1.5-0.2-3-0.4-4.6-0.6c0.1-1.5,0.8-2.7,1.4-4c0.7-0.5,1,0,1.4,0.5C66.4,68.4,67,69.8,67.6,71.2z"
	/>
<path class="st138" d="M78.5,80.6c0.2-1.2-0.9-1.5-1.4-2.2c-0.2-0.2-0.2-0.5,0-0.7c0.5-0.4,1.1-0.4,1.7-0.4c0.7,0.1,1.3,0.5,1.9,0.9
	c0.5,0.2,1,0.4,1.5,0.6c0.1,1.8-0.6,2.9-2.6,2.6C79.2,81.3,78.8,81.1,78.5,80.6z"/>
<path class="st139" d="M79.5,81.1c1.8,0.4,2.1-1.1,2.8-2.2c1.6,0.7,1,2,0.6,3.1c-0.4,1.1-1.3,1.7-2.5,1c-0.6-0.3-1.1-0.7-1.6-1.1
	c-0.2-0.2-0.4-0.5-0.1-0.7C78.9,80.8,79.2,80.9,79.5,81.1z"/>
<path class="st140" d="M62,73.6c-1.4,1.6-3.3,2.2-5.2,2.7c-0.4,0.1-0.5-0.4-0.6-0.8C58,74.4,59.8,73.3,62,73.6z"/>
<path class="st141" d="M80.7,78.3c-0.6,0.1-1.2-0.2-1.7-0.5c-0.1-0.1-0.1-0.4-0.1-0.4c1.5-0.6-0.1-0.9-0.1-1.4c0-0.9,0.3-1.5,1.1-2
	c0.1-0.1,0.3-0.2,0.4-0.3c1.4,0.4,0.9,1.5,0.8,2.4C81.1,76.8,80.4,77.5,80.7,78.3z"/>
<path class="st142" d="M79.5,81.1c-0.3,0.1-0.9,0-0.3,0.6c0.4,0.4,0.8,0.8,1.2,1.3c-0.3,0-0.6,0-0.9,0c-0.1-0.9-3.1-0.5-1-2.3
	C78.9,80.6,79.3,80.7,79.5,81.1z"/>
<path class="st143" d="M65.8,67c-0.5-0.2-0.9-0.3-1.4-0.5c0.1-0.4,0.1-0.8,0.6-0.7C65.7,65.9,65.8,66.5,65.8,67z"/>
<path class="st144" d="M141,30.9c0.4,0.8-0.1,1.7,0,2.5c0.1,1.3-0.3,1.9-1.6,1.8c-0.6,0-1.5-0.2-1.5,0.6c0.3,3.7-2.7,3.1-4.7,4
	c0.3-1.3,1.7-1.9,1.8-3.3c1.1-2.2,2.4-4.5,2.7-7c0.2,0,0.3,0,0.4-0.1C139.3,29.6,140.2,30,141,30.9z"/>
<path class="st145" d="M134.1,37.1c-0.9,1.2-2,3.6-2.9,3c-1.5-0.9-1.7-3.4-1.7-5.4c-0.1-1.8,0.3-2.9,2.4-2c0.4,0.2,0.9,0,1.3,0.1
	c0.8,0.2,1.9-1.1,2.4,0c0.4,1-0.6,1.8-1,2.7C134.5,36.1,134.1,36.5,134.1,37.1z"/>
<path class="st146" d="M129.1,25.4c2.8,1.5,5.7,0.5,8.5,0.4c-0.4,0.4-0.9,0.9-1.2,1.4c-2,2.6-3.7,2.7-5.9,0.4
	C129.9,26.9,129.4,26.2,129.1,25.4z"/>
<path class="st147" d="M128,15.5c-0.4-0.5-1-0.5-1.6-0.5c-0.1-0.2-0.1-0.3-0.2-0.5c1-0.9,2.3-0.6,3.5-0.7c0.4,0,0.8,0,1.1,0
	c1.6,0,3.2,0.1,4.7-0.2c0.4-0.1,0.7-0.1,1.1,0c0.7,0.1,1.4,0.2,2,0.3c0.3,0.1,0.7,0.2,0.9,0.5c-0.4,0.3-0.7,0.6-1.1,0.9
	c-0.1,0-0.2,0-0.3,0c-0.8,0.4-1.5,0.7-2.3,0c-0.8,0.1-1.6-0.3-2.3,0.4c-0.6,0.5-1.2,0.5-1.8,0c-0.5-0.7-1.2-0.4-1.8-0.4
	c-0.5,0.3-0.9,0.4-1.4,0C128.4,15.5,128.2,15.5,128,15.5z"/>
<path class="st51" d="M135.9,15.5c0.8,0.2,1.5-0.4,2.3,0c-0.4,0.5,0,1.2-0.2,1.7c-0.3,0.6-0.4,1.7-1.4,1.3c-0.8-0.3-1.4-1-0.6-1.9
	C136.3,16.2,136,15.9,135.9,15.5z"/>
<path class="st51" d="M131.8,16c0.6,0,1.2,0,1.8,0c0.4,0.4,0.7,0.9,1.4,1.7c-1.5-0.4-2.9,0.2-3.9-1c-0.2-0.2-0.5-0.4,0-0.6
	C131.3,16,131.6,16,131.8,16z"/>
<path class="st51" d="M128.6,15.5c0.5,0,0.9,0,1.4,0c-1.3,0.9-0.2,2.4-0.9,3.9C128.4,17.9,128.7,16.7,128.6,15.5z"/>
<path class="st148" d="M130,14.6c-1.2,0-2.5,0-3.7,0c-1.1-2.9,0-5.3,1.8-7.5c0.3-0.2,0.7-0.3,1.1-0.3c1.2,0.5,1.5,1.3,1,2.5
	c-0.5,0.3-0.8,0.4-0.6-0.4c-0.6,0.5,0.1,0.7,0.2,1.1C130.2,11.5,131.1,13,130,14.6z"/>
<path class="st149" d="M139.6,14.6c-0.3,0-0.6-0.1-1-0.1c1.8-2.7,1.5-4.6-1.3-7c-1.9-2.1-4.5-1.5-6.8-1.7c-0.2-0.2-0.2-0.4,0-0.6
	c3.8-1.9,8.8,0.2,10,4.4c0.4,1.6,2,3.4,0.1,5.1C140.2,14.7,139.9,14.6,139.6,14.6z"/>
<path class="st150" d="M130.4,5.2c0,0.2,0,0.3,0,0.5c-0.1,0.8-0.7,1.1-1.4,1.4c-0.3,0-0.7,0-1,0C128.7,6.1,129.3,5.4,130.4,5.2z"/>
<path class="st151" d="M203.3,92.8c1.5-0.1,3-0.1,4.4,0.4c0.3,3.6-0.2,7.1-0.3,10.6c-0.1,3.4,1.1,5.1,4.1,6.1c0.8,0.2,1.6,0.4,2.2,1
	c-0.3,0.5-0.8,0.6-1.3,0.6c-0.9,0-1.8-0.3-2.7-0.5c-0.9-0.5-1.8-0.2-2.7,0.3c-0.6,0.2-1.3,0.2-1.9-0.1c-0.6-0.4-1.3-0.7-1.9-1.2
	c-0.3-0.6,0.2-1,0.4-1.5c0.6-1.3,0.1-2.8,0.6-4.2C204.1,100.6,202.8,96.7,203.3,92.8z"/>
<path class="st152" d="M212.3,111.1c0.5,0,1-0.1,1.4-0.1c0.9,0,1.9,0,2.7,0.4c0.5,3.3,0.3,6.5,0.2,9.8c0,0.6-0.1,1.3-0.7,1.6
	c-0.5,0.3-1,0.2-1.5,0.2c-2.4,0-2.7-0.2-2.8-2.5c-0.1-2.3-0.1-4.7,0-7C211.7,112.6,211.7,111.7,212.3,111.1z"/>
<path class="st153" d="M212.3,72.7c2,0.1,4.3,1.6,6-0.9c0.5-0.3,0.9-0.6,1.4-0.9c0.9,1.8,1.7,3.6,2.2,5.5c0.3,1.3,0.1,2.1-1.5,2
	c-1.6-0.1-3.1,0-4.7,0c-0.7,0-1.4,0-1.5-0.9C213.2,75.9,212,74.6,212.3,72.7z"/>
<path class="st154" d="M207.8,91.4c0.2-2.9,1-5.6,1.8-8.3c0.2-0.7,1.1-1.2,1.3-2C210.8,84.8,210.9,88.6,207.8,91.4z"/>
<path class="st155" d="M212.3,72.7c0.5,1.6,1.7,2.9,1.8,4.7c-0.2,0.9-1.5,0.4-1.5,1.5c-0.1,0-0.2,0-0.2-0.1c-0.1,0-0.1-0.1-0.1-0.2
	c0.1-2.9-1.5-5.3-2.6-7.8C211.3,70.3,211.5,72,212.3,72.7z"/>
<path class="st156" d="M213.7,53.3c1.9-0.7,3.7-0.9,4.9,1.2c0.1,0.3,0.1,0.7-0.1,1c-0.7,1.1-1,2.5-1.5,3.7c-1.3,1.2-2.4,0.8-3.4-0.3
	c-0.3-0.4-0.5-0.8-0.7-1.3c-0.1-0.2-0.1-0.4-0.2-0.7C212.4,55.6,212.4,54.3,213.7,53.3z"/>
<path class="st157" d="M218.3,55.3c0.1-0.2,0.2-0.5,0.4-0.7c1.7,1,1.9,2.7,1.9,4.5c-0.7,0.4-1.4,0.5-2.2,0.5c-1.3-0.2-1-1.2-0.8-1.9
	C217.8,56.9,217.9,56.1,218.3,55.3z"/>
<path class="st158" d="M213.7,53.3c-0.8,1.2-0.5,2.5-0.4,3.8c-0.6,1-1.1-0.8-1.4-0.1c-0.4,1.1,0.7,1.3,1.4,1.7
	c0.3,0.2,0.4,0.5,0.3,0.9c-0.1,0.1-0.1,0.2-0.2,0.3c-0.6-0.1-1.3-0.3-1.9-0.4c-0.3,0-0.5,0-0.8,0C209.7,56.9,210.9,54.6,213.7,53.3z
	"/>
<path class="st159" d="M218.3,65.7c0.9-1.6,0-3.5,0.7-5.1c0.9,0.4,0.1,1.3,0.6,1.8c-0.8,1.2,0,2.7-0.9,3.8
	C218.5,66,218.4,65.9,218.3,65.7z"/>
<path class="st160" d="M219.6,62.3c-0.7-0.4-0.2-1.3-0.6-1.8c0.2-0.5,0.6-0.5,1-0.5C219.9,60.8,219.8,61.6,219.6,62.3z"/>
<path class="st161" d="M218.3,65.7c0.1,0.2,0.3,0.3,0.4,0.5c-0.1,0.2-0.1,0.4-0.2,0.5c-0.2,0.1-0.5,0.2-0.7,0.4
	c-0.3-0.3-0.8,0-1-0.6C217.3,66.2,217.8,65.9,218.3,65.7z"/>
<path class="st35" d="M211.5,150.4c-1.8,0-3.7,0-5.5,0c-1.4-2-0.9-4.3-1.1-6.5c-0.4-6-0.5-11.9,1.1-17.8c0.5-0.7-0.1-1.9,0.9-2.4
	c2.3,0,4.7,0.1,7,0c1.6-0.1,2.1,0.3,1.6,2c-0.9,2.7-1.3,5.5-1.3,8.4c-0.3,0.8-0.3,1.6-0.8,2.3C212.6,141,211.8,145.7,211.5,150.4z"
	/>
<path class="st162" d="M180.6,151.3c1.9-0.9,3.9-0.3,5.9-0.5c0.4,0.6,0.4,1.2,0.4,1.9c-2.1,0.1-4.2-0.8-6.4,0
	C180.5,152.2,180.6,151.8,180.6,151.3z"/>
<path class="st163" d="M206.9,123.3c-2.1,0-4.2-0.2-6.4-0.1c-2.3,0.2-3-0.8-2.8-3c0.1-2.1,0.2-4.2,0-6.3c-0.2-2.2,0.5-3.3,2.8-2.9
	c0.9-0.2,1.6-0.8,2.6-0.5c0.7,0.2,1.4,0,2,0.5c0.8,0,1.5,0,2.3,0c0.7-0.6,1.6-0.2,2.3-0.4c0.9,0.1,1.8,0.3,2.6,0.4
	c0,2.6,0,5.3,0,7.9c0,3.7,0,3.7,3.6,3.8c-1.8,1-3.8,0.2-5.7,0.4C209.1,123.3,208,123.3,206.9,123.3z"/>
<path class="st164" d="M213.4,136.4c0-0.9,0.2-1.6,0.8-2.3c0,0.6,0,1.2,0,1.8C213.9,136.1,213.6,136.2,213.4,136.4z"/>
<path class="st165" d="M177.4,112.5c0-0.5,0-0.9,0-1.4c0.5-0.3,0.6,0.2,0.8,0.5c0,0.5,0,0.9,0,1.4
	C177.9,112.8,177.7,112.6,177.4,112.5z"/>
<path class="st166" d="M32.9,83.8c-0.1,0.4-0.1,0.7-0.2,1.1c-1.3,0-0.6,0.8-0.5,1.4c0,0.5-0.2,0.8-0.5,1c-0.7-1.1-0.7,0.2-1,0.3
	c-1.5,0.2-1.3-0.9-1.4-1.9c0.1-1.3-0.2-2.8,1.1-3.7c0.8,0,1.5,0.3,2.2,0.3C33,82.8,32.7,83.3,32.9,83.8z"/>
<path class="st167" d="M32.6,82.5C31.7,83.2,31,83,30.4,82c0.2-0.9,0.5-1.9,0.7-2.8c0.2-0.2,0.4-0.3,0.6-0.5
	c0.7,0.4,0.1,1.5,0.9,1.8c0.1,0.1,0.1,0.2,0.2,0.3C32.9,81.4,33,82,32.6,82.5z"/>
<path class="st168" d="M28.4,93.8c-0.5-1-0.5-1.8,0.4-2.5c1.7,0.6,1.1,1.6,0.3,2.5C28.9,93.9,28.7,93.9,28.4,93.8z"/>
<path class="st169" d="M29,93.7c0.4-0.9,0.8-1.7-0.1-2.5c0,0,0-0.2,0-0.2c0.3,0,0.7-0.1,1-0.1c0.7,1.1,0.8,2.3,0.3,3.5
	c-0.1,0.1-0.2,0.2-0.3,0.3c-0.1,0-0.2-0.1-0.4-0.1C29,94.5,28.7,94.3,29,93.7z"/>
<path class="st170" d="M29,93.7c0.2,0.3,0.3,0.6,0.5,0.9c0,0.8,0,1.6,0,2.4c-0.9-0.9-1-2-1-3.2C28.6,93.7,28.8,93.7,29,93.7z"/>
<path class="st171" d="M36.2,72.2c-0.1,0.8-0.3,1.6-0.4,2.3c-0.5,0.3-0.4,0.9-0.5,1.4c-0.4,0.1-0.6,0-0.8-0.4
	C34.9,74.3,34.7,72.8,36.2,72.2z"/>
<path class="st172" d="M34.4,77.8c-0.2,1.3,0.1,2.9-1.3,3.8c-0.5-0.2-0.2-0.7-0.5-1c0,0,0,0,0,0c0.2-0.3,0.3-0.6,0.5-0.9
	c0.1-0.7,0.4-1.3,0.8-1.9c0.1-0.3,0.1-0.6,0.2-0.9C34.7,77,34.7,77.3,34.4,77.8z"/>
<path class="st129" d="M34.4,77.8c-0.1-0.3-0.2-0.6-0.3-0.9c-0.3-0.6,0.2-1,0.4-1.4c0.3,0.1,0.5,0.3,0.8,0.4
	C35.3,76.7,35,77.3,34.4,77.8z"/>
<path class="st82" d="M33.9,77.8c0.1,0.8,0,1.5-0.8,1.9C32.2,78.6,33,78.2,33.9,77.8z"/>
<path class="st173" d="M144.5,56.7c-0.5,0.2-0.9,0.3-1.4,0.5c-2.5,1.5-5.2,1.1-7.9,1.2c-1.4-0.1-2.8,0-4.1-0.5
	c-1.7-1.4-3.8-0.7-5.7-1.1c0-0.2,0-0.3,0-0.5c0.1-1.2-1.3-2.3,0-3.5c0.2-0.1,0.3-0.2,0.5-0.3c0.3-0.1,0.8,0.1,0.9-0.5l0,0
	c1-0.1,1.9-0.3,2.3-1.4c2.6-1.6,5.1-3.1,7.7-4.7c0.7-0.4,1.5-1,1.9,0.4c0.6,1.7,1.3,3.3,0.1,5.1c0.8-0.9,1.3-1.6,2.1-0.3
	c0.3,0.4,0.8,0.5,1.2,0.7C143.5,53.1,144.6,54.6,144.5,56.7z"/>
<path class="st35" d="M149,64.2c0.4,0.8,0.2,1.4-0.6,1.8c-0.9,0.4-1.7,1-2.5,1.5c-2.5,2.3-5.3,4.3-8.6,5.2c-1.6,1.2-2.5,0.7-3.4-1
	c-1.5-3-3.2-5.9-4.8-8.8c-0.2-1,0.7-1.5,1.2-1.1c1.5,1,3.1,0,4.6,0.5c1.7,0.6,3.5,1,5.3,1.2c2.1,0.3,4.2,0.5,6.3,0.8
	C147.3,64.2,148.2,64.2,149,64.2z"/>
<path class="st174" d="M135,57.7c2.7,0.2,5.4-0.4,8.1-0.5c0.6,2.1,1.6,4.2,0.6,6.5c-2,0.8-3.8-0.2-5.7-0.4c-3-0.4-5.8-1.5-8.8-1.8
	c-0.6-0.1-0.9-0.6-1.4-0.7c-3.1-0.8-3.3-1.2-2.3-3.9c1.9-0.5,3.8-1.2,5.4,0.5C132.2,58.2,133.6,58,135,57.7z"/>
<path class="st175" d="M137.3,72.7c2.9-1.7,5.7-3.5,8.6-5.2c0,2.1,0.1,4.2,0.1,6.3c0,0.7,0.3,1.6-0.5,2.1c-2,0.9-4.2,1.4-6.4,1.8
	C139,75.9,137.7,74.4,137.3,72.7z"/>
<path class="st176" d="M144.5,56.7c-0.8-1.6-1.5-3.3-2.7-4.7c-0.4-0.4-0.7-0.7-0.5-1.4c2.6-2.7,2.6-2.7,3.7,1.2c0,0.1,0,0.2,0,0.2
	c0.3,0.7,0.3,1.5,0.4,2.2c0,0.5,0,1-0.4,1.5C145,56.2,145,56.6,144.5,56.7z"/>
<path class="st177" d="M127.8,60.6c4.8,0.7,9.3,2.5,14.1,2.9c0.6,0.1,1.2,0.1,1.8,0.1c0.9,0.2,1.9-0.1,2.7,0.5
	c-3.2,0.5-6.3,0-9.4-0.8c-2-0.5-3.9-1.2-6.1-0.8c-0.5,0.1-1.3-1.1-1.9,0.2C128.7,62.1,128.2,61.4,127.8,60.6z"/>
<path class="st178" d="M141.3,50.7c0.2,0.5,0.3,0.9,0.5,1.4c-1.4,0.9-1.2-1-1.9-1.2c-0.7,0.5,0.4,1.4-0.5,1.8
	c-0.4,0.2-0.6-0.1-0.7-0.3c-0.5-0.7-1-2-0.5-2.3c1.4-0.9,0.8-1.5,0.1-2.3c-0.3-0.4,0.2-0.9,0.3-1.3
	C139.6,47.8,140.5,49.2,141.3,50.7z"/>
<path class="st179" d="M152.1,48.8c0.9,4.1,0.6,8.3,0.6,12.5c-0.3,0.7-0.6,1.3-0.9,2c0.3-3.3,0.5-6.6,0.5-10
	C152.3,51.8,151.2,50.4,152.1,48.8z"/>
<path class="st180" d="M125.4,52.8c-0.3,1.2,0.9,2.3,0,3.5C125,55.1,122.7,54,125.4,52.8z"/>
<path class="st180" d="M129.1,50.6c-0.2,1.5-0.9,2.1-2.3,1.4C127.5,51.5,128.3,51.1,129.1,50.6z"/>
<path class="st181" d="M145.9,53.9c-0.3,0.1-0.5,0.3-0.8,0.4c0-0.8,0-1.5-0.1-2.3C145.3,52.7,145.6,53.3,145.9,53.9z"/>
<path class="st180" d="M126.8,52c0,0.4,0,0.8,0.1,1.2c-0.3-0.3-0.6-0.5-1-0.8C126.2,52.3,126.5,52.2,126.8,52z"/>
<path class="st182" d="M79,75.9c1.6,0.6,0.3,1.2,0,1.9c-0.6,0-1.2,0-1.8,0c-3-0.6-6.3,0.4-9.2-1.4c-0.8,0.1-1.4-0.3-1.8-0.9
	c0.2-0.2,0.4-0.4,0.6-0.5c3.7-0.1,7.3,0.3,11,0.3C78.3,75.3,78.7,75.5,79,75.9z"/>
<path class="st183" d="M68,76.4c3.1,0.4,6.2,0.6,9.2,1.4c0,0.2,0,0.4,0,0.6c-1.2-0.6-2.4-0.8-3.7-0.3C71.2,79.2,69.6,77.9,68,76.4z"
	/>
<path class="st184" d="M66.7,75.4c-0.2,0-0.3,0.1-0.5,0.1c-1.2-0.4-2.4-0.7-3.2-1.9c-0.4-0.9-0.8-1.9,0.5-2.4
	C64.2,73,66.1,73.7,66.7,75.4z"/>
<path class="st12" d="M186.4,73.6c-0.6-2.5,1.5-3,2.8-3.9c1.1-0.7,0.9,1.3,1.8,1.5c1.4,2.3,2.2,4.9,3,7.5c0.7,2.2,0.4,4.3-0.9,6.2
	c-1.8,2.8-3.5,5.6-5.9,8c-0.9-0.1-1.7,0.4-2.5,0.7c-0.7,0.3-1.5,0.6-2.1,0c-0.7-0.8,0.2-1.3,0.5-2c0.1-0.3,0.3-0.5,0.5-0.8
	c0.7-0.5,1.5-0.9,2.3-1.3c0.3-0.2,0.5-0.6,0.7-0.9c0.6-1.2,1.2-2.3,1.7-3.5c1.9-3.8,1.8-4.3-1-7.5c-0.6-0.7-0.7-1.6-1-2.4
	C186.3,74.7,186.1,74.1,186.4,73.6z"/>
<path class="st185" d="M186.5,90c-0.8,0.9-1.9,0.5-2.9,0.9c-0.3-0.3,0.2-0.7,0.1-0.8c-0.6-0.4-5.3,0.4-5.5,1
	c-0.7,1.8-1.9,1.9-3.5,1.3c-0.7-0.3-1.5-0.1-2.3-0.1c-0.7-1.7-2.5-1.6-3.8-2.3c-0.1-0.2-0.2-0.4-0.2-0.7c0.1-1,0-2,0.6-2.9
	c2.6-0.6,5.2-1.3,7.8-0.6c2.3,0.6,4.3,0.6,6.4-0.1c0.7-0.2,1.5-0.4,2.2-0.2C186.6,86.9,186.7,88.4,186.5,90z"/>
<path class="st186" d="M178.2,111.5c-0.3-0.2-0.5-0.3-0.8-0.5c-0.1-0.6-0.1-1.2,0.6-1.6C178.4,110.2,178.2,110.9,178.2,111.5z"/>
<path class="st187" d="M189.2,119c0.3,0.6,0.5,1.2,0.8,1.8c0.1,0.2,0.2,0.7-0.3,0.5c-0.2-0.1-0.3-0.3-0.5-0.4
	C189.2,120.3,189.2,119.6,189.2,119z"/>
<path class="st0" d="M162.8,75c0.6-1.6,1.2-3.1,1.8-4.7c1.5-2,2.4,0.5,3.6,0.4c0.1,0.8-0.3,2,1.3,1.4c0.3,0.2,0.4,0.5,0.3,0.9
	c-0.1,0.2-0.2,0.4-0.4,0.5c-1.5,1.1-1.9,2.9-2.6,4.5c-0.2,0.6-0.6,1.2-1,1.6c-1.8,1.5-0.9,3.2-0.3,4.8c0.6,1.5,1.9,2.8,1.8,4.6
	c-0.2,1.4,0.8,1.9,1.8,2.3c0.8,0.2,1.7,0.1,2.2,1.4c-2,0-3.5-0.5-4.7-1.9c-1-1.2-1.8-2.7-2.9-3.9C160.5,83.2,161.3,79.1,162.8,75z"
	/>
<path class="st188" d="M180.7,62.3c0.4,0,0.8,0,1.2,0.1c1,1.6,0.7,3.3,0.4,4.9c-0.2,1.3-1.2,1.7-2.3,1.7c-1.7,0.1-3.5,0-5.2,0.1
	c-0.3,0.1-0.5,0.1-0.8,0.1c-0.3,0-0.5-0.2-0.7-0.4c0.8-1.4,1.6-2.9,1.7-4.6C177.2,64.5,179.5,65.2,180.7,62.3z"/>
<path class="st189" d="M174.6,59.1c1.5,0.5,2.9,1.4,4.5,0.5c-1.2,2.4-2.5,2.4-4.5,0C174.6,59.4,174.6,59.2,174.6,59.1z"/>
<path class="st190" d="M173.3,68.8c0.1,0,0.3,0.1,0.4,0.2c-0.2,2-1.6,3.5-4.2,4.1c0-0.3,0-0.6,0-0.9
	C170.9,71.2,172.4,70.4,173.3,68.8z"/>
<path class="st191" d="M167.3,89c-1.1-2-2.4-3.9-3-6.1c-0.4-1.5-0.5-2.9,1.2-3.7c0.2,0.3,0.3,0.6,0.2,1c-0.7,1.3-0.2,2.5,0.3,3.7
	c0.7,1.6,2.2,3,1.6,5.1C167.6,89,167.4,89,167.3,89z"/>
<path class="st192" d="M176,44.6c0.8,0.5,1.8,0.5,2.7,0.5c0.5,0.7,1.7,1.1,0.9,2.3c-0.5,0.7-0.4,1.4-0.5,2.2
	c-0.1,2.6-0.3,2.8-2.9,2.9c-1.2-0.3-1.6-1.3-2-2.3c-0.4-0.9-0.5-1.9-1-2.8C172.6,44.8,175,45.5,176,44.6z"/>
<path class="st193" d="M173.2,47.3c0.9,0.5,0.6,1.7,1.4,2.4c0.3,1,0.1,2.4,1.7,2.6c0.8,0.3,1.9-0.7,2.4,0.6c-1.9,0-3.9,0.1-5.8,0.1
	c-0.4,0-0.7-0.2-1-0.4c-0.2,0-0.3-0.1-0.4-0.2C174.9,51.9,173.4,49.3,173.2,47.3z"/>
<path class="st194" d="M172.8,53.9c0.7,0.7,0.3,1.6,0.4,2.4c-0.5-0.5-0.8-1.2-0.8-1.9C172.5,54.1,172.6,54,172.8,53.9z"/>
<path class="st195" d="M172.8,53.9c-0.1,0.1-0.3,0.3-0.4,0.4c-0.2-0.6-0.4-1.1-0.6-1.7c0.4-0.1,0.7,0,1,0.4
	C172.8,53.3,172.8,53.6,172.8,53.9z"/>
<path class="st196" d="M216.8,66.4c0.3,0.2,0.6,0.4,1,0.6c-1.2,0.3-2.2,2-3.7,0.6c-0.1-0.4-0.3-0.8-0.4-1.2
	C215.1,64.6,215.7,64.6,216.8,66.4z"/>
<path class="st197" d="M218.3,55.3c0.5,1.4-1.2,2.8,0,4.2c-0.3,0.6-0.7,0.9-1.4,0.8c-0.4-0.4-0.3-0.9,0-1.3
	C216.8,57.6,217.3,56.4,218.3,55.3z"/>
<path class="st158" d="M216.9,59.1c0,0.4,0,0.9,0,1.3c-1.2-0.1-2.5,0.5-3.6-0.4c0,0,0,0,0,0c0.4-0.4,0-1,0.4-1.4
	C214.7,59.4,215.7,59.9,216.9,59.1z"/>
<path class="st35" d="M169.5,73c1.4-1.4,3.6-1.9,4.2-4.1c0.1,0,0.3-0.1,0.4-0.1c2.4-0.4,4.9,0.1,7.3-0.3c0.3-0.1,0.7-0.2,1-0.3
	c0.2,0,0.4-0.1,0.7,0c0.4,0.1,0.7,0.4,1.1,0.7c1,0.4,1.1,1.4,1.4,2.2c0.1,0.8,0.3,1.7,0.4,2.5c0.4,0.7,0.4,1.5,0.8,2.2
	c0.6,2.7-0.2,5.3-0.3,8c0,0.8-0.3,1.5-1,2c-3,0.8-5.7,1.9-9.1,0.7c-2.1-0.8-4.8,0.1-7.2,0.3c-1.1-1.2-1-2.7-1.1-4.1
	c-0.3-2.5-0.3-5.1,0.1-7.6c0.1-0.7,0.5-1.3,1-1.8C169.3,73.1,169.4,73.1,169.5,73z"/>
<path class="st35" d="M184.2,65.3c0,0.4-0.1,0.9-0.1,1.3c-0.6,0.5,0.4,1.7-0.9,1.9l0,0c-1.2-0.6-0.8-1.8-0.9-2.8
	c0-0.8-0.1-1.6,0.2-2.3c0.4-0.5,1-1,1.5-0.6C184.7,63.4,184.3,64.4,184.2,65.3z"/>
<path class="st198" d="M184.2,65.3c-0.9-0.3,1.1-2.9-1.4-2c-0.3-0.3-0.3-0.6,0-0.9c0.6,0,1.3-0.1,1.9,0.4
	C184.5,63.6,184.7,64.5,184.2,65.3z"/>
<path class="st198" d="M183.2,68.4c0.7-0.4,0.2-1.4,0.9-1.9c0,0.8,0.1,1.5,0.1,2.3C183.8,68.9,183.4,68.8,183.2,68.4z"/>
<path class="st199" d="M182.3,68.9c-2.7,0-5.4,0.3-8.1,0c1-0.8,2.2-0.4,3.3-0.4c4.9-0.1,4.4,0.4,4.4-4.7c0-0.5,0-0.9,0-1.4
	c0.2,0,0.3,0,0.5,0c0.5,1.1,0.1,2.2,0.2,3.3C182.4,66.7,182.9,67.8,182.3,68.9z"/>
<path class="st188" d="M182.4,65.7c0-1.1,0-2.2,0-3.4c0.2,0,0.3,0,0.5,0c0,0.3,0,0.6,0,0.9c0,0.7-0.1,1.5-0.1,2.2
	C182.7,65.7,182.6,65.8,182.4,65.7z"/>
<path class="st200" d="M178.7,52.9c-0.8-0.8-1.8-0.3-2.7-0.4c-0.1-0.1-0.2-0.2-0.1-0.3c0-0.1,0.1-0.2,0.1-0.2c2.1,0.3,3-0.5,2.7-2.7
	c-0.1-0.8,0-1.6,0.9-2c0.2,1.6-0.5,3.2,0.5,4.7c0,0.2,0,0.3,0,0.5C179.7,53.1,179.2,52.9,178.7,52.9z"/>
<path class="st201" d="M40.8,92.8c0.1,2.3,0.3,4.6,0.4,6.9c-0.1,0.2-0.3,0.4-0.4,0.6c-1.6,1.1-3.1,0.5-4.6-0.3
	c-1.7-0.9-2.4-2.7-3.8-4c-0.2-0.2-0.3-0.3-0.5-0.5c-0.1-0.2-0.2-0.5-0.3-0.7c-0.1-1.1-0.3-2.3,0.5-3.3C35,91.9,37.9,92.3,40.8,92.8z
	"/>
<path class="st202" d="M38.1,101.2c-0.1,0.3,1.2,0.7-0.1,1c-1.8,0.4-2.9-0.7-4-1.9c-0.2-0.6-0.4-1.2,0.3-1.7
	C35.7,99.2,36.9,100.1,38.1,101.2z"/>
<path class="st203" d="M38.1,101.2c-1.4-0.8-2.7-1.5-4.1-2.3c-0.4,0-0.8-0.1-1-0.4c-0.1-0.2-0.1-0.4-0.1-0.6
	c0.1-0.8-0.5-1.5-0.3-2.3c1,0,1.1,0.9,1.5,1.5c1.7,2.6,4.1,3.7,6.8,3.2C40.2,101.7,39.1,101.2,38.1,101.2z"/>
<path class="st204" d="M41.3,99.9c0.1-0.1,0.2-0.1,0.3-0.1c0.7-0.4,1,0.3,1.4,0.5c1.6,0.6-0.2,0.9-0.1,1.3
	C41.4,102,40.8,101.5,41.3,99.9z"/>
<path class="st205" d="M33.2,98.3c0.4,0,0.7,0.1,0.8,0.5c0.3,0.5,0.3,1,0,1.4c-1-0.2-1.7-0.7-1.8-1.9C32.5,98.1,32.8,98.1,33.2,98.3
	z"/>
<path class="st206" d="M33.2,98.3c-0.3,0-0.7,0.1-1,0.1c-0.4-0.6-1.5-0.8-1-1.8c0.1-0.2,0.3-0.3,0.5-0.3c0.2,0,0.4,0.1,0.6,0.2
	c0.4,0.5,1,0.9,0.8,1.7C33.2,98.2,33.2,98.2,33.2,98.3z"/>
<path class="st207" d="M31.7,96.4c-0.2,0.1-0.3,0.1-0.5,0.2c-1.1-0.2-1.1-1.1-1.4-1.9c0,0,0.1-0.1,0.1-0.1c0.1-0.1,0.3-0.2,0.5-0.2
	c0.1,0,0.2,0,0.3,0c0.1,0,0.2,0.1,0.3,0.1c0.2,0.2,0.4,0.4,0.5,0.6c0.1,0.2,0.2,0.5,0.3,0.7C31.9,96.1,31.8,96.3,31.7,96.4z"/>
<path class="st208" d="M43.1,100.3c-0.7,0.5-0.9-0.5-1.4-0.5c0.3-0.9,0.6-1.8,1-2.8c0.6-0.5,0-1.3,0.4-1.9l0,0
	c0.2-0.2,0.4-0.2,0.6-0.1c0.3,0.2,0.5,0.4,0.6,0.8c0.3,0.8,0,1.6-0.3,2.3c-0.1,0.7-0.5,1.2-0.9,1.7C43.1,99.9,43.1,100.1,43.1,100.3
	z"/>
<path class="st209" d="M43.1,99.8c0.2-0.6,0.3-1.2,0.5-1.9c0.3-0.2,0.6-0.3,0.8,0c0,0.2,0,0.3,0,0.5C44.1,99,44,99.8,43.1,99.8z"/>
<path class="st210" d="M45.8,96.1c-0.4,0.2-0.4,0.5-0.5,0.9c0,0,0,0.1,0,0.1c-1.2-0.1-0.7-1.2-1-1.9c-0.1-0.7,0-1.3,0.5-1.9
	c0.2-0.4,0.5-0.5,0.9-0.5C46.1,93.9,46.1,95,45.8,96.1z"/>
<path class="st211" d="M44.9,93.3c0,0.6,0,1.2,0,1.8c-0.2,0.3-0.5,0.5-0.9,0.5c-0.2-0.2-0.3-0.3-0.5-0.5c-0.2-0.6-0.1-1.3-0.4-1.8
	c0-0.2,0-0.3,0-0.5C43.7,93,44.3,93.1,44.9,93.3z"/>
<path class="st212" d="M45.8,96.1c0-1.1,0-2.2,0-3.3c0.1,0,0.3,0,0.4,0c0,0.9,0,1.9,0.1,2.8c0,0.3,0,0.6-0.1,0.9
	C46.1,96.4,45.9,96.2,45.8,96.1z"/>
<path class="st213" d="M30.7,91.4c0.3-0.5,0.7-0.5,1,0c0.3,0.9,0.2,1.8,0.1,2.7c-0.1,0.7-0.5,0.9-1.1,0.5l0,0
	C30.1,93.6,30.2,92.5,30.7,91.4z"/>
<path class="st214" d="M30.8,94.6c1.8-0.6,0.5-2.2,1-3.3c0.1,0,0.3,0,0.4,0c0,1.2,0,2.4-0.1,3.6c-0.1,0.2-0.2,0.4-0.3,0.6
	c-0.1,0-0.2,0.1-0.3,0.1c-0.1-0.1-0.1-0.2-0.2-0.2C31.1,95.2,30.9,94.9,30.8,94.6z"/>
<path class="st215" d="M30.4,94.6c-0.2,0-0.3,0-0.5,0c0-1.2-0.1-2.5-0.1-3.7c0.6-0.4,0.4,0.3,0.6,0.5C30.6,92.5,30.6,93.5,30.4,94.6
	z"/>
<path class="st216" d="M31.6,87.2c0.1-0.3,0.3-0.6,0.4-0.9c0.2-0.2,0.4-0.2,0.6,0.1c0,0.7-0.1,1.5-0.1,2.2c-0.3,0-0.5,0-0.8,0
	C31.3,88.1,31.3,87.6,31.6,87.2z"/>
<path class="st217" d="M31.6,87.2c0,0.5,0,0.9,0,1.4c-0.6,0-0.9-0.4-0.9-1c0.1-0.3-0.2-0.8,0.2-1C31.1,86.6,31.4,87,31.6,87.2z"/>
<path class="st218" d="M30.4,94.6c0-1.1,0-2.2,0-3.2c0.1,0,0.2,0,0.3,0c0,1.1,0,2.2,0,3.3C30.7,94.6,30.5,94.6,30.4,94.6z"/>
<path class="st219" d="M32.6,86.3c-0.2,0-0.4-0.1-0.6-0.1c-0.1-0.7-1.5-0.7-0.7-1.8c0.7-0.9,0.9,0.4,1.4,0.4
	C32.7,85.4,32.6,85.8,32.6,86.3z"/>
<path class="st220" d="M32.6,80.6c0.2,0.3,0.3,0.7,0.5,1c-0.1,0.7-0.2,1.5-0.2,2.2c-0.1-0.4-0.2-0.9-0.4-1.3
	C32.6,81.8,32.6,81.2,32.6,80.6z"/>
<path class="st211" d="M43,95.1c0.1,0.7,0.7,1.5-0.4,1.9C42.6,96.3,42.5,95.6,43,95.1z"/>
<path class="st221" d="M43.1,93.3c0.6,0.5,0.8,1.1,0.4,1.8c-0.2,0-0.3,0-0.5,0C43.1,94.5,43.1,93.9,43.1,93.3z"/>
<path class="st222" d="M66.7,75.4c-0.2-0.5-0.6-0.8-1.2-0.9c-1.6-0.4-1.9-1.8-2-3.3c0.3,0,0.6,0,0.9,0c0.7,0.8,1.9,0.5,2.7,0.9
	c0.8,0,1.5,0,2.3,0c0.7,0.9,1.9,0.5,2.7,0.9c2.6-0.2,5,1.5,7.7,0.9c-0.3,0.6-0.6,1.3-0.9,1.9C74.9,76,70.8,76,66.7,75.4z"/>
<path class="st184" d="M72.2,73.1c-1-0.1-2.1,0.4-2.7-0.9C70.4,72.5,71.4,72.4,72.2,73.1z"/>
<path class="st184" d="M67.2,72.2c-1-0.1-2.1,0.4-2.7-0.9C65.4,71.6,66.4,71.5,67.2,72.2z"/>
<path class="st223" d="M129.1,7.1c0.3-0.6,0.8-1.1,1.4-1.4c2.7-0.9,5.1-0.7,7.3,1.4c0.2,0.4,0,0.8-0.2,1.2c-0.4,0.6-0.6,1.3-0.6,2.1
	c-0.2,1.3-0.2,2.6-1,3.7c-1.6,1-3.4,0.3-5,0.5c-0.5-1.7-1.1-3.3-0.9-5.1C130,8.5,130.1,7.5,129.1,7.1z"/>
<path class="st224" d="M137.3,8c0.1-0.3,0.3-0.6,0.4-0.9c1.5,0.8,2.1,2.3,2.5,3.8c0.5,1.7,0.3,3.1-1.6,3.6c-0.6,0-1.3,0.2-1.8-0.4
	c-0.9-1.2,0-2.6-0.2-3.9C136.8,9.5,136.9,8.7,137.3,8z"/>
<path class="st225" d="M130,9.4c0.3,1.7,1.1,3.3,0.9,5.1c-0.3,0-0.6,0-0.9,0c0.3-2.1-0.7-4-1-6.5C129.5,8.8,129.7,9.1,130,9.4z"/>
<path class="st226" d="M136.8,9.9c0,1.4,0,2.8,0,4.2c-0.3,0-0.6,0-0.9,0c-0.3-1.4,0.6-2.8,0.4-4.2C136.5,9.7,136.7,9.7,136.8,9.9z"
	/>
<path class="st227" d="M205,111c-0.7,0-1.4,0-2.2,0c-0.2-0.3-0.1-0.5,0.1-0.8c0.1,0,0.2-0.1,0.3-0.1C204,110.2,204.9,109.7,205,111z
	"/>
<path class="st228" d="M209.7,110.6c-0.7,0.8-1.5,0.4-2.3,0.4C208,109.9,208.8,110,209.7,110.6z"/>
<path class="st227" d="M201.8,110.1c0.6-0.7,1.4-1,2.3-1c-0.3,0.3-0.6,0.7-0.9,1c0,0,0,0,0,0C202.8,110.4,202.3,110.5,201.8,110.1z"
	/>
<path class="st229" d="M213.3,59.1c-0.7-0.1-1.7,0.4-2.2-0.6c-0.4-1.1,0.2-1.9,1-2.7c0.5,0.4,0.2,1.6,1.2,1.5c0,0.2,0,0.3,0,0.5
	C213.3,58.1,213.7,58.6,213.3,59.1z"/>
<path class="st230" d="M213.3,59.1c0.2-0.5-0.5-0.9,0-1.4c0.4,0.2,0.4,0.6,0.5,0.9c0,0.5,0.1,1-0.4,1.4
	C213.3,59.7,213.3,59.4,213.3,59.1z"/>
<path class="st151" d="M201.8,110.1c0.5,0,0.9,0,1.4,0c-0.1,0.3-0.3,0.6-0.4,0.9c-0.8,0-1.6,0-2.4,0
	C200.9,110.7,201.4,110.4,201.8,110.1z"/>
<path class="st231" d="M135,57.7c-1.4,0.4-2.9,1-4.1-0.5C132.3,57.4,133.7,57.6,135,57.7z"/>
<path class="st180" d="M129.4,53.8c-0.4,1.1-0.9,1.5-1.6,1.5C127.9,54.5,128.5,54.4,129.4,53.8z"/>
<path class="st232" d="M168.6,74.6c-1,0.9-1,2.5-2.2,3.3c0.6-1.8,0.9-3.8,2.8-4.7C169,73.6,168.8,74.1,168.6,74.6z"/>
<path class="st113" d="M176,52c0,0.2,0,0.3,0,0.5c-1.5-0.4-1.4-1.6-1.4-2.8C175.3,50.4,175,51.6,176,52z"/>
<path class="st198" d="M182.4,65.7c0.1-0.1,0.2-0.2,0.4-0.2c0.1,1-0.1,2,0.5,3c-0.3,0.1-0.6,0.3-1,0.4
	C182.3,67.8,182.3,66.8,182.4,65.7z"/>
<path class="st233" d="M33.1,98.1c-0.3-0.5-0.7-1.1-1-1.6C32,96.3,31.9,96,32,95.8c0.1-0.1,0.1-0.2,0.2-0.3c0.1,0,0.2,0,0.4,0
	C32.7,96.4,33.9,97,33.1,98.1z"/>
<path class="st234" d="M31.7,95.6c0.1-0.2,0.2-0.4,0.4-0.5c0,0.2,0.1,0.3,0.1,0.5c0,0,0,0.1,0,0.1C32,95.8,31.8,95.8,31.7,95.6z"/>
<path class="st235" d="M31.7,95.6c0.1,0,0.3,0,0.4,0c0,0.3,0,0.5,0,0.8c0,0-0.2,0-0.2,0s-0.2,0-0.2,0c0-0.1,0-0.2,0-0.3
	c-0.1-0.1-0.2-0.2-0.1-0.3C31.6,95.7,31.7,95.6,31.7,95.6L31.7,95.6z"/>
<path class="st234" d="M31.7,95.6c0,0.2,0,0.3,0,0.5c-0.1-0.2-0.3-0.4-0.4-0.6C31.4,95.6,31.6,95.6,31.7,95.6z"/>
<path class="st236" d="M136.8,9.9c-0.2,0-0.3,0-0.5,0c0.1-0.8,0.3-1.4,0.9-1.9C137.2,8.7,137.5,9.4,136.8,9.9z"/>
</svg>
